<?xml version="1.0" encoding="UTF-8" standalone="no"?>
<!-- Generator: Adobe Illustrator 16.0.0, SVG Export Plug-In . SVG Version: 6.00 Build 0)  -->

<svg
   xmlns:dc="http://purl.org/dc/elements/1.1/"
   xmlns:cc="http://creativecommons.org/ns#"
   xmlns:rdf="http://www.w3.org/1999/02/22-rdf-syntax-ns#"
   xmlns:svg="http://www.w3.org/2000/svg"
   xmlns="http://www.w3.org/2000/svg"
   xmlns:sodipodi="http://sodipodi.sourceforge.net/DTD/sodipodi-0.dtd"
   xmlns:inkscape="http://www.inkscape.org/namespaces/inkscape"
   version="1.1"
   id="Capa_1"
   x="0px"
   y="0px"
   width="249.499px"
   height="249.499px"
   viewBox="0 0 249.499 249.499"
   style="enable-background:new 0 0 249.499 249.499;"
   xml:space="preserve"
   sodipodi:docname="correct.svg"
   inkscape:version="0.92.5 (2060ec1f9f, 2020-04-08)"><metadata
   id="metadata41"><rdf:RDF><cc:Work
       rdf:about=""><dc:format>image/svg+xml</dc:format><dc:type
         rdf:resource="http://purl.org/dc/dcmitype/StillImage" /><dc:title /></cc:Work></rdf:RDF></metadata><defs
   id="defs39" /><sodipodi:namedview
   pagecolor="#ffffff"
   bordercolor="#666666"
   borderopacity="1"
   objecttolerance="10"
   gridtolerance="10"
   guidetolerance="10"
   inkscape:pageopacity="0"
   inkscape:pageshadow="2"
   inkscape:window-width="1858"
   inkscape:window-height="1016"
   id="namedview37"
   showgrid="false"
   inkscape:zoom="0.22627417"
   inkscape:cx="1676.285"
   inkscape:cy="805.81046"
   inkscape:window-x="62"
   inkscape:window-y="27"
   inkscape:window-maximized="1"
   inkscape:current-layer="layer1" />

<g
   id="g6">
</g>
<g
   id="g8">
</g>
<g
   id="g10">
</g>
<g
   id="g12">
</g>
<g
   id="g14">
</g>
<g
   id="g16">
</g>
<g
   id="g18">
</g>
<g
   id="g20">
</g>
<g
   id="g22">
</g>
<g
   id="g24">
</g>
<g
   id="g26">
</g>
<g
   id="g28">
</g>
<g
   id="g30">
</g>
<g
   id="g32">
</g>
<g
   id="g34">
</g>
<g
   inkscape:groupmode="layer"
   id="layer1"
   inkscape:label="Layer 1"><path
     style="fill:#000000;stroke-width:0.17688397"
     d="m 123.99689,169.43234 c -0.4163,-0.078 -0.9821,-0.3026 -1.2574,-0.4985 -0.4326,-0.3081 -6.0539,-6.0224 -15.6701,-15.9295 -1.4615,-1.5056 -5.2043,-5.31 -8.317396,-8.4541 -3.1132,-3.1441 -5.8347,-6.0054 -6.0479,-6.3584 -0.5332,-0.8828 -0.6682,-1.8627 -0.3929,-2.8524 0.2057,-0.7396 0.9248,-1.5348 7.0495,-7.7943 7.062796,-7.2183 7.520496,-7.6103 8.895196,-7.6184 1.4839,-0.01 1.7365,0.2065 9.5193,8.1103 l 7.4245,7.54 2.5988,-2.6532 c 3.6355,-3.7118 12.8151,-13.0212 20.0388,-20.3222 3.5025,-3.5401 6.345,-6.2711 6.6716,-6.4102 0.8107,-0.3452 2.0722,-0.3008 2.8591,0.1006 0.8477,0.4325 13.4999,13.2415 13.8887,14.0608 0.4184,0.8816 0.3659,2.3685 -0.115,3.256 -0.2189,0.4041 -2.7883,3.1428 -5.7098,6.0861 -2.9214,2.9433 -12.8221,12.9765 -22.0015,22.2959 -9.1794,9.3194 -16.898,17.0489 -17.1525,17.1767 -0.6756,0.3392 -1.4229,0.426 -2.281,0.2648 z"
     id="path962"
     inkscape:connector-curvature="0" /></g></svg>