<?xml version="1.0" encoding="UTF-8" standalone="no"?>
<!-- Generator: Adobe Illustrator 16.0.0, SVG Export Plug-In . SVG Version: 6.00 Build 0)  -->

<svg
   xmlns:dc="http://purl.org/dc/elements/1.1/"
   xmlns:cc="http://creativecommons.org/ns#"
   xmlns:rdf="http://www.w3.org/1999/02/22-rdf-syntax-ns#"
   xmlns:svg="http://www.w3.org/2000/svg"
   xmlns="http://www.w3.org/2000/svg"
   xmlns:sodipodi="http://sodipodi.sourceforge.net/DTD/sodipodi-0.dtd"
   xmlns:inkscape="http://www.inkscape.org/namespaces/inkscape"
   version="1.1"
   id="Capa_1"
   x="0px"
   y="0px"
   width="32"
   height="25.6791"
   viewBox="0 0 32.000001 25.679101"
   xml:space="preserve"
   sodipodi:docname="correct.svg"
   inkscape:version="0.92.5 (2060ec1f9f, 2020-04-08)"><metadata
   id="metadata41"><rdf:RDF><cc:Work
       rdf:about=""><dc:format>image/svg+xml</dc:format><dc:type
         rdf:resource="http://purl.org/dc/dcmitype/StillImage" /><dc:title></dc:title></cc:Work></rdf:RDF></metadata><defs
   id="defs39" /><sodipodi:namedview
   pagecolor="#ffffff"
   bordercolor="#666666"
   borderopacity="1"
   objecttolerance="10"
   gridtolerance="10"
   guidetolerance="10"
   inkscape:pageopacity="0"
   inkscape:pageshadow="2"
   inkscape:window-width="1858"
   inkscape:window-height="1016"
   id="namedview37"
   showgrid="false"
   inkscape:zoom="3.6203867"
   inkscape:cx="-11.733231"
   inkscape:cy="-13.593438"
   inkscape:window-x="62"
   inkscape:window-y="27"
   inkscape:window-maximized="1"
   inkscape:current-layer="layer1"
   fit-margin-top="0"
   fit-margin-left="0"
   fit-margin-right="0"
   fit-margin-bottom="0" />

<g
   id="g6"
   transform="translate(-92.823973,-143.37823)">
</g>
<g
   id="g8"
   transform="translate(-92.823973,-143.37823)">
</g>
<g
   id="g10"
   transform="translate(-92.823973,-143.37823)">
</g>
<g
   id="g12"
   transform="translate(-92.823973,-143.37823)">
</g>
<g
   id="g14"
   transform="translate(-92.823973,-143.37823)">
</g>
<g
   id="g16"
   transform="translate(-92.823973,-143.37823)">
</g>
<g
   id="g18"
   transform="translate(-92.823973,-143.37823)">
</g>
<g
   id="g20"
   transform="translate(-92.823973,-143.37823)">
</g>
<g
   id="g22"
   transform="translate(-92.823973,-143.37823)">
</g>
<g
   id="g24"
   transform="translate(-92.823973,-143.37823)">
</g>
<g
   id="g26"
   transform="translate(-92.823973,-143.37823)">
</g>
<g
   id="g28"
   transform="translate(-92.823973,-143.37823)">
</g>
<g
   id="g30"
   transform="translate(-92.823973,-143.37823)">
</g>
<g
   id="g32"
   transform="translate(-92.823973,-143.37823)">
</g>
<g
   id="g34"
   transform="translate(-92.823973,-143.37823)">
</g>
<g
   inkscape:groupmode="layer"
   id="layer1"
   inkscape:label="Layer 1"
   transform="translate(-92.823973,-143.37823)"><path
     style="fill:#0e6c00;fill-opacity:1;stroke:#ffffff;stroke-width:0.97553098;stroke-miterlimit:4;stroke-dasharray:none;stroke-opacity:1"
     d="m 105.93973,167.81056 c -0.15213,-0.0285 -0.35891,-0.11057 -0.45952,-0.18211 -0.15809,-0.11264 -2.21242,-2.20091 -5.726724,-5.82151 -0.534055,-0.55023 -1.901903,-1.94056 -3.039596,-3.08961 -1.137731,-1.14903 -2.132309,-2.19468 -2.210226,-2.32369 -0.194858,-0.3226 -0.2442,-0.68075 -0.143583,-1.04241 0.07517,-0.27031 0.337971,-0.56091 2.576262,-2.84847 2.581133,-2.63794 2.74842,-2.7812 3.250777,-2.78416 0.54232,-0.004 0.6346,0.0755 3.47886,2.96392 l 2.7133,2.75553 0.94978,-0.96961 c 1.32861,-1.35648 4.68331,-4.75864 7.32325,-7.42684 1.27999,-1.29374 2.31879,-2.29178 2.43816,-2.34263 0.29626,-0.12615 0.75728,-0.10993 1.04488,0.0371 0.30978,0.15807 4.93358,4.83916 5.07564,5.13856 0.15291,0.32219 0.13376,0.8656 -0.0419,1.18993 -0.08,0.14766 -1.019,1.14854 -2.08667,2.22419 -1.06765,1.07564 -4.68588,4.74229 -8.04056,8.14808 -3.35461,3.40588 -6.1754,6.23058 -6.26843,6.27728 -0.24689,0.124 -0.52002,0.1557 -0.83359,0.0968 z"
     id="path962"
     inkscape:connector-curvature="0" /></g></svg>