<?xml version="1.0" encoding="UTF-8" standalone="no"?>
<!-- Generator: Adobe Illustrator 16.0.0, SVG Export Plug-In . SVG Version: 6.00 Build 0)  -->

<svg
   xmlns:dc="http://purl.org/dc/elements/1.1/"
   xmlns:cc="http://creativecommons.org/ns#"
   xmlns:rdf="http://www.w3.org/1999/02/22-rdf-syntax-ns#"
   xmlns:svg="http://www.w3.org/2000/svg"
   xmlns="http://www.w3.org/2000/svg"
   xmlns:sodipodi="http://sodipodi.sourceforge.net/DTD/sodipodi-0.dtd"
   xmlns:inkscape="http://www.inkscape.org/namespaces/inkscape"
   version="1.1"
   id="Capa_1"
   x="0px"
   y="0px"
   width="31.999992"
   height="32.113937"
   viewBox="0 0 31.999993 32.113939"
   xml:space="preserve"
   sodipodi:docname="wrong.svg"
   inkscape:version="0.92.5 (2060ec1f9f, 2020-04-08)"><metadata
   id="metadata41"><rdf:RDF><cc:Work
       rdf:about=""><dc:format>image/svg+xml</dc:format><dc:type
         rdf:resource="http://purl.org/dc/dcmitype/StillImage" /><dc:title></dc:title></cc:Work></rdf:RDF></metadata><defs
   id="defs39" /><sodipodi:namedview
   pagecolor="#ffffff"
   bordercolor="#666666"
   borderopacity="1"
   objecttolerance="10"
   gridtolerance="10"
   guidetolerance="10"
   inkscape:pageopacity="0"
   inkscape:pageshadow="2"
   inkscape:window-width="1858"
   inkscape:window-height="1016"
   id="namedview37"
   showgrid="false"
   inkscape:zoom="3.6203867"
   inkscape:cx="-87.549452"
   inkscape:cy="-18.10658"
   inkscape:window-x="62"
   inkscape:window-y="27"
   inkscape:window-maximized="1"
   inkscape:current-layer="layer1"
   fit-margin-top="0"
   fit-margin-left="0"
   fit-margin-right="0"
   fit-margin-bottom="0" />

<g
   id="g6"
   transform="translate(-116.27534,-125.94844)">
</g>
<g
   id="g8"
   transform="translate(-116.27534,-125.94844)">
</g>
<g
   id="g10"
   transform="translate(-116.27534,-125.94844)">
</g>
<g
   id="g12"
   transform="translate(-116.27534,-125.94844)">
</g>
<g
   id="g14"
   transform="translate(-116.27534,-125.94844)">
</g>
<g
   id="g16"
   transform="translate(-116.27534,-125.94844)">
</g>
<g
   id="g18"
   transform="translate(-116.27534,-125.94844)">
</g>
<g
   id="g20"
   transform="translate(-116.27534,-125.94844)">
</g>
<g
   id="g22"
   transform="translate(-116.27534,-125.94844)">
</g>
<g
   id="g24"
   transform="translate(-116.27534,-125.94844)">
</g>
<g
   id="g26"
   transform="translate(-116.27534,-125.94844)">
</g>
<g
   id="g28"
   transform="translate(-116.27534,-125.94844)">
</g>
<g
   id="g30"
   transform="translate(-116.27534,-125.94844)">
</g>
<g
   id="g32"
   transform="translate(-116.27534,-125.94844)">
</g>
<g
   id="g34"
   transform="translate(-116.27534,-125.94844)">
</g>
<g
   inkscape:groupmode="layer"
   id="layer1"
   inkscape:label="Layer 1"
   transform="translate(-116.27534,-125.94844)"><path
     style="fill:#880e22;fill-opacity:1;stroke:#ffffff;stroke-width:0.91852909;stroke-miterlimit:4;stroke-dasharray:none;stroke-opacity:1"
     d="m 124.87816,156.51144 c -0.15594,-0.0561 -0.34159,-0.13652 -0.41259,-0.17874 -0.071,-0.0421 -1.4659,-1.4316 -3.09982,-3.08751 -1.88021,-1.9055 -3.01492,-3.1164 -3.09098,-3.29844 -0.1602,-0.38336 -0.14775,-1.07969 0.0252,-1.39954 0.15048,-0.27862 1.35428,-1.5399 4.2537,-4.45677 l 1.86648,-1.8777 -3.17941,-3.22091 c -1.7487,-1.7715 -3.24954,-3.35831 -3.33517,-3.52623 -0.18795,-0.36839 -0.20422,-1.01119 -0.0357,-1.41424 0.14114,-0.33775 5.81692,-6.12221 6.30186,-6.4225 0.38318,-0.23727 1.02039,-0.26123 1.43769,-0.054 0.15488,0.0769 1.72172,1.60087 3.48186,3.38652 l 3.20026,3.24664 3.19099,-3.24943 c 2.33869,-2.38146 3.27482,-3.28293 3.50472,-3.37493 0.42636,-0.17059 0.94198,-0.15773 1.31572,0.033 0.47267,0.24098 6.11745,5.9986 6.34497,6.47176 0.21932,0.45627 0.23012,0.91466 0.0316,1.34903 -0.0981,0.21493 -1.21846,1.40806 -3.32684,3.54314 l -3.17891,3.21907 2.97975,3.03539 c 1.63887,1.66946 3.02562,3.11887 3.08168,3.2209 0.17348,0.31596 0.21777,0.85329 0.10378,1.26023 -0.0957,0.34178 -0.41152,0.69135 -3.1415,3.47664 -3.19587,3.26071 -3.30115,3.34868 -4.00289,3.34507 -0.66917,-0.005 -0.85346,-0.15842 -3.94581,-3.3169 l -2.95506,-3.01832 -3.07991,3.12004 c -2.89031,2.9279 -3.1033,3.12546 -3.46005,3.20899 -0.46571,0.109 -0.51994,0.10776 -0.87544,-0.0201 z"
     id="path966"
     inkscape:connector-curvature="0" /></g></svg>