<?xml version="1.0" encoding="UTF-8" standalone="no"?>
<!-- Generator: Adobe Illustrator 16.0.0, SVG Export Plug-In . SVG Version: 6.00 Build 0)  -->

<svg
   xmlns:dc="http://purl.org/dc/elements/1.1/"
   xmlns:cc="http://creativecommons.org/ns#"
   xmlns:rdf="http://www.w3.org/1999/02/22-rdf-syntax-ns#"
   xmlns:svg="http://www.w3.org/2000/svg"
   xmlns="http://www.w3.org/2000/svg"
   xmlns:sodipodi="http://sodipodi.sourceforge.net/DTD/sodipodi-0.dtd"
   xmlns:inkscape="http://www.inkscape.org/namespaces/inkscape"
   version="1.1"
   id="Capa_1"
   x="0px"
   y="0px"
   width="249.499px"
   height="249.499px"
   viewBox="0 0 249.499 249.499"
   style="enable-background:new 0 0 249.499 249.499;"
   xml:space="preserve"
   sodipodi:docname="wrong.svg"
   inkscape:version="0.92.5 (2060ec1f9f, 2020-04-08)"><metadata
   id="metadata41"><rdf:RDF><cc:Work
       rdf:about=""><dc:format>image/svg+xml</dc:format><dc:type
         rdf:resource="http://purl.org/dc/dcmitype/StillImage" /><dc:title /></cc:Work></rdf:RDF></metadata><defs
   id="defs39" /><sodipodi:namedview
   pagecolor="#ffffff"
   bordercolor="#666666"
   borderopacity="1"
   objecttolerance="10"
   gridtolerance="10"
   guidetolerance="10"
   inkscape:pageopacity="0"
   inkscape:pageshadow="2"
   inkscape:window-width="1858"
   inkscape:window-height="1016"
   id="namedview37"
   showgrid="false"
   inkscape:zoom="0.16"
   inkscape:cx="1733.5823"
   inkscape:cy="282.87542"
   inkscape:window-x="62"
   inkscape:window-y="27"
   inkscape:window-maximized="1"
   inkscape:current-layer="layer1" />

<g
   id="g6">
</g>
<g
   id="g8">
</g>
<g
   id="g10">
</g>
<g
   id="g12">
</g>
<g
   id="g14">
</g>
<g
   id="g16">
</g>
<g
   id="g18">
</g>
<g
   id="g20">
</g>
<g
   id="g22">
</g>
<g
   id="g24">
</g>
<g
   id="g26">
</g>
<g
   id="g28">
</g>
<g
   id="g30">
</g>
<g
   id="g32">
</g>
<g
   id="g34">
</g>
<g
   inkscape:groupmode="layer"
   id="layer1"
   inkscape:label="Layer 1"><path
     style="fill:#000000;stroke-width:0.17688397"
     d="m 131.20081,158.5084 c -0.3405,-0.1225 -0.7459,-0.2981 -0.9009,-0.3903 -0.155,-0.092 -3.2009,-3.126 -6.7687,-6.7418 -4.1056,-4.1608 -6.5833,-6.8049 -6.7494,-7.2024 -0.3498,-0.8371 -0.3226,-2.3576 0.055,-3.056 0.3286,-0.6084 2.9572,-3.3625 9.2883,-9.7317 l 4.0756,-4.1001 -6.9425,-7.0331 c -3.8184,-3.8682 -7.0956,-7.3331 -7.2826,-7.6998 -0.4104,-0.8044 -0.4459,-2.208 -0.078,-3.0881 0.3082,-0.7375 12.7017,-13.368302 13.7606,-14.024002 0.8367,-0.5181 2.2281,-0.5704 3.1393,-0.1179 0.3382,0.1679 3.7595,3.4956 7.6029,7.394702 l 6.988,7.0893 6.9678,-7.0954 c 5.1067,-5.200102 7.1508,-7.168502 7.6528,-7.369402 0.931,-0.3725 2.0569,-0.3444 2.873,0.072 1.0321,0.5262 13.3579,13.098402 13.8547,14.131602 0.4789,0.9963 0.5025,1.9972 0.069,2.9457 -0.2143,0.4693 -2.6606,3.0746 -7.2644,7.7367 l -6.9414,7.0291 6.5065,6.628 c 3.5786,3.6454 6.6067,6.8103 6.7291,7.0331 0.3788,0.6899 0.4755,1.8632 0.2266,2.7518 -0.2089,0.7463 -0.8986,1.5096 -6.8597,7.5915 -6.9784,7.12 -7.2083,7.3121 -8.7406,7.3042 -1.4612,-0.01 -1.8636,-0.3459 -8.616,-7.2427 l -6.4526,-6.5907 -6.7252,6.8128 c -6.3112,6.3933 -6.7763,6.8247 -7.5553,7.0071 -1.0169,0.238 -1.1353,0.2353 -1.9116,-0.044 z"
     id="path966"
     inkscape:connector-curvature="0" /></g></svg>