<svg height="480pt" viewBox="0 -24 480 480" width="480pt" xmlns="http://www.w3.org/2000/svg"><path d="m424 56h-368c-26.507812 0-48 21.492188-48 48v272c0 26.507812 21.492188 48 48 48h368c26.507812 0 48-21.492188 48-48v-272c0-26.507812-21.492188-48-48-48zm0 0" fill="#9bc9ff"/><g fill="#1e81ce"><path d="m128 256c-8.835938 0-16-7.164062-16-16s7.164062-16 16-16 16 7.164062 16 16-7.164062 16-16 16zm0-16"/><path d="m128 368c-8.835938 0-16-7.164062-16-16s7.164062-16 16-16 16 7.164062 16 16-7.164062 16-16 16zm0-16"/><path d="m424 48h-64v-40c0-4.417969-3.582031-8-8-8s-8 3.582031-8 8v40h-208v-40c0-4.417969-3.582031-8-8-8s-8 3.582031-8 8v40h-64c-30.914062.035156-55.9648438 25.085938-56 56v272c.0351562 30.914062 25.085938 55.964844 56 56h368c30.914062-.035156 55.964844-25.085938 56-56v-272c-.035156-30.914062-25.085938-55.964844-56-56zm-368 16h64v40c0 4.417969 3.582031 8 8 8s8-3.582031 8-8v-40h208v40c0 4.417969 3.582031 8 8 8s8-3.582031 8-8v-40h64c22.082031.027344 39.972656 17.917969 40 40v56h-448v-56c.027344-22.082031 17.917969-39.972656 40-40zm408 312c-.027344 22.082031-17.917969 39.972656-40 40h-368c-22.082031-.027344-39.972656-17.917969-40-40v-200h448zm0 0"/><path d="m352 256c-8.835938 0-16-7.164062-16-16s7.164062-16 16-16 16 7.164062 16 16-7.164062 16-16 16zm0-16"/><path d="m352 368c-8.835938 0-16-7.164062-16-16s7.164062-16 16-16 16 7.164062 16 16-7.164062 16-16 16zm0-16"/><path d="m240 256c-8.835938 0-16-7.164062-16-16s7.164062-16 16-16 16 7.164062 16 16-7.164062 16-16 16zm0-16"/><path d="m240 368c-8.835938 0-16-7.164062-16-16s7.164062-16 16-16 16 7.164062 16 16-7.164062 16-16 16zm0-16"/></g></svg>