<svg height="480pt" viewBox="0 -48 480 480" width="480pt" xmlns="http://www.w3.org/2000/svg"><path d="m40 376h400c17.671875 0 32-14.328125 32-32v-240c0-17.671875-14.328125-32-32-32h-56c-17.671875 0-32-14.328125-32-32s-14.328125-32-32-32h-160c-17.671875 0-32 14.328125-32 32s-14.328125 32-32 32h-56c-17.671875 0-32 14.328125-32 32v240c0 17.671875 14.328125 32 32 32zm200-280c53.019531 0 96 42.980469 96 96s-42.980469 96-96 96-96-42.980469-96-96 42.980469-96 96-96zm0 0" fill="#9bc9ff"/><g fill="#1e81ce"><path d="m240 296c-57.4375 0-104-46.5625-104-104s46.5625-104 104-104 104 46.5625 104 104c-.066406 57.410156-46.589844 103.933594-104 104zm0-192c-48.601562 0-88 39.398438-88 88s39.398438 88 88 88 88-39.398438 88-88c-.058594-48.578125-39.421875-87.941406-88-88zm0 0"/><path d="m440 384h-400c-22.082031-.027344-39.9726562-17.917969-40-40v-240c.0273438-22.082031 17.917969-39.972656 40-40h56c13.253906 0 24-10.746094 24-24 .027344-22.082031 17.917969-39.9726562 40-40h160c22.082031.0273438 39.972656 17.917969 40 40 0 13.253906 10.746094 24 24 24h56c22.082031.027344 39.972656 17.917969 40 40v240c-.027344 22.082031-17.917969 39.972656-40 40zm-400-304c-13.253906 0-24 10.746094-24 24v240c0 13.253906 10.746094 24 24 24h400c13.253906 0 24-10.746094 24-24v-240c0-13.253906-10.746094-24-24-24h-56c-22.082031-.027344-39.972656-17.917969-40-40 0-13.253906-10.746094-24-24-24h-160c-13.253906 0-24 10.746094-24 24-.027344 22.082031-17.917969 39.972656-40 40zm0 0"/></g></svg>