<svg height="480pt" viewBox="-104 0 480 480" width="480pt" xmlns="http://www.w3.org/2000/svg"><path d="m136 480c-75.074219-.082031-135.9179688-60.925781-136-136v-240c0-57.4375 46.5625-104 104-104s104 46.5625 104 104v224c0 39.765625-32.234375 72-72 72s-72-32.234375-72-72v-192c0-4.417969 3.582031-8 8-8s8 3.582031 8 8v192c0 30.929688 25.070312 56 56 56s56-25.070312 56-56v-224c0-48.601562-39.398438-88-88-88s-88 39.398438-88 88v240c0 66.273438 53.726562 120 120 120s120-53.726562 120-120v-208c0-4.417969 3.582031-8 8-8s8 3.582031 8 8v208c-.082031 75.074219-60.925781 135.917969-136 136zm0 0" fill="#1e81ce"/></svg>