<svg height="480pt" viewBox="-63 0 479 480" width="480pt" xmlns="http://www.w3.org/2000/svg"><path d="m40.738281 8h271.523438c17.804687 0 32.238281 14.433594 32.238281 32.238281v399.523438c0 17.804687-14.433594 32.238281-32.238281 32.238281h-271.523438c-17.804687 0-32.238281-14.433594-32.238281-32.238281v-399.523438c0-17.804687 14.433594-32.238281 32.238281-32.238281zm0 0" fill="#9bc9ff"/><g fill="#1e81ce"><path d="m312.261719 480h-271.523438c-22.210937-.027344-40.210937-18.027344-40.238281-40.238281v-399.523438c.027344-22.210937 18.027344-40.2109372 40.238281-40.238281h271.523438c22.210937.0273438 40.210937 18.027344 40.238281 40.238281v399.523438c-.027344 22.210937-18.027344 40.210937-40.238281 40.238281zm-271.523438-464c-13.378906.011719-24.226562 10.859375-24.238281 24.238281v399.523438c.011719 13.378906 10.859375 24.226562 24.238281 24.238281h271.523438c13.378906-.011719 24.226562-10.859375 24.238281-24.238281v-399.523438c-.011719-13.378906-10.859375-24.226562-24.238281-24.238281zm0 0"/><path d="m272.5 248h-192c-4.417969 0-8-3.582031-8-8s3.582031-8 8-8h192c4.417969 0 8 3.582031 8 8s-3.582031 8-8 8zm0 0"/><path d="m272.5 344h-192c-4.417969 0-8-3.582031-8-8s3.582031-8 8-8h192c4.417969 0 8 3.582031 8 8s-3.582031 8-8 8zm0 0"/><path d="m272.5 152h-192c-4.417969 0-8-3.582031-8-8s3.582031-8 8-8h192c4.417969 0 8 3.582031 8 8s-3.582031 8-8 8zm0 0"/></g></svg>