<svg height="441pt" viewBox="0 0 441.1203 441" width="441pt" xmlns="http://www.w3.org/2000/svg"><path d="m108.960938 241.707031 192.558593-192.558593h-277.519531c-8.824219.027343-15.972656 7.175781-16 16v352c.027344 8.824218 7.175781 15.972656 16 16h352c8.824219-.027344 15.972656-7.175782 16-16v-277.519532l-192.558594 192.558594zm-11.359376 101.84375 11.308594-101.824219 90.523438 90.503907zm0 0" fill="#9bc9ff"/><path d="m301.519531 49.148438-192.558593 192.558593 90.480468 90.480469 214.957032-214.957031-90.476563-90.480469zm0 0" fill="#9bc9ff"/><path d="m441.121094 72.027344c-.015625-29.101563-17.542969-55.332032-44.425782-66.476563-26.882812-11.144531-57.832031-5.011719-78.429687 15.542969l-20.058594 20.054688h-274.207031c-13.253906 0-24 10.746093-24 24v352c0 13.253906 10.746094 24 24 24h352c13.253906 0 24-10.746094 24-24v-274.207032l20.054688-20.054687c13.535156-13.457031 21.121093-31.773438 21.066406-50.859375zm-32.378906-39.621094c19.648437 19.691406 21.886718 50.8125 5.257812 73.109375l-78.398438-78.398437c22.328126-16.589844 53.433594-14.339844 73.140626 5.289062zm-226.742188 293.710938-75.335938 8.367187 8.367188-75.335937zm202-167.175782v258.207032c0 4.417968-3.582031 8-8 8h-352c-4.417969 0-8-3.582032-8-8v-352c0-4.417969 3.582031-8 8-8h258.207031l-178.902343 178.90625c-.058594.054687-.082032.140624-.136719.199218-1.210938 1.246094-1.984375 2.855469-2.191407 4.582032l-11.3125 101.816406c-.253906 2.261718.464844 4.523437 1.980469 6.222656s3.679688 2.671875 5.957031 2.675781c.296876 0 .59375-.019531.886719-.058593l101.816407-11.3125c1.726562-.207032 3.335937-.976563 4.582031-2.191407.058593-.054687.144531-.078125.203125-.136719zm-184.558594 161.933594-79.203125-79.199219 203.683594-203.613281 79.199219 79.199219zm0 0" fill="#1e81ce"/></svg>