<svg height="479pt" viewBox="0 0 479 479.9966" width="479pt" xmlns="http://www.w3.org/2000/svg"><path d="m479.871094 243.054688c.8125-1.957032.8125-4.15625 0-6.113282-.398438-.976562-.988282-1.863281-1.734375-2.605468l-67.871094-67.875c-3.140625-3.03125-8.128906-2.988282-11.214844.097656-3.085937 3.085937-3.128906 8.078125-.097656 11.214844l54.222656 54.226562h-204.6875v-204.691406l54.226563 54.226562c3.136718 3.03125 8.125 2.988282 11.210937-.097656 3.085938-3.085938 3.132813-8.074219.097657-11.214844l-67.871094-67.871094c-1.5-1.507812-3.539063-2.351562-5.664063-2.351562s-4.164062.84375-5.664062 2.351562l-67.871094 67.871094c-3.03125 3.140625-2.988281 8.128906.097656 11.214844 3.085938 3.085938 8.074219 3.128906 11.214844.097656l54.222656-54.226562v204.691406h-204.6875l54.222657-54.226562c3.035156-3.136719 2.988281-8.128907-.097657-11.214844-3.085937-3.085938-8.074219-3.128906-11.210937-.097656l-67.875 67.875c-.746094.742187-1.335938 1.628906-1.734375 2.605468-.808594 1.957032-.808594 4.15625 0 6.113282.398437.976562.988281 1.863281 1.734375 2.609374l67.875 67.871094c3.136718 3.03125 8.125 2.988282 11.210937-.097656 3.085938-3.085938 3.132813-8.074219.097657-11.214844l-54.222657-54.222656h204.6875v204.6875l-54.222656-54.226562c-3.140625-3.03125-8.128906-2.988282-11.214844.097656-3.085937 3.085937-3.128906 8.078125-.097656 11.214844l67.871094 67.871093c1.5 1.507813 3.539062 2.351563 5.664062 2.351563s4.164063-.84375 5.664063-2.351563l67.871094-67.871093c3.035156-3.136719 2.988281-8.128907-.097657-11.214844-3.085937-3.085938-8.074219-3.128906-11.210937-.097656l-54.226563 54.226562v-204.6875h204.6875l-54.222656 54.222656c-2.078125 2.007813-2.914063 4.984375-2.183594 7.78125.734375 2.796875 2.917969 4.980469 5.714844 5.710938 2.796875.734375 5.773437-.101563 7.78125-2.179688l67.871094-67.871094c.746093-.746093 1.335937-1.632812 1.734375-2.609374zm0 0" fill="#1e81ce"/></svg>