<svg height="480pt" viewBox="0 -63 480 479" width="480pt" xmlns="http://www.w3.org/2000/svg"><path d="m312 90.101562-128 128-72-72-104 104v78.398438c0 8.835938 7.164062 16 16 16h432c8.835938 0 16-7.164062 16-16v-80h-1.601562zm0 0" fill="#9bc9ff"/><path d="m456 .5h-432c-13.253906 0-24 10.746094-24 24v304c0 13.253906 10.746094 24 24 24h432c13.253906 0 24-10.746094 24-24v-304c0-13.253906-10.746094-24-24-24zm-432 16h432c4.417969 0 8 3.582031 8 8v206.289062l-146.34375-146.34375c-3.125-3.125-8.1875-3.125-11.3125 0l-122.34375 122.34375-66.34375-66.34375c-3.125-3.125-8.1875-3.125-11.3125 0l-90.34375 90.34375v-206.289062c0-4.417969 3.582031-8 8-8zm440 312c0 4.417969-3.582031 8-8 8h-432c-4.417969 0-8-3.582031-8-8v-75.089844l96-96 66.34375 66.347656c3.125 3.121094 8.1875 3.121094 11.3125 0l122.34375-122.347656 152 152zm0 0" fill="#1e81ce"/></svg>