<svg height="471pt" viewBox="0 0 471.16565 471" width="471pt" xmlns="http://www.w3.org/2000/svg"><path d="m426.597656 225.664062c49.46875-50.074218 49.226563-130.699218-.546875-180.46875-49.773437-49.773437-130.394531-50.019531-180.46875-.550781l-237.601562 237.601563 181.035156 181.007812zm-101.992187-146.914062c18.746093-18.742188 49.136719-18.742188 67.882812.003906 18.742188 18.746094 18.742188 49.136719 0 67.878906-18.746093 18.746094-49.136719 18.75-67.882812.003907-18.75-18.746094-18.75-49.140625 0-67.886719zm0 0" fill="#9bc9ff"/><g fill="#1e81ce"><path d="m189.015625 471.246094c-2.125.007812-4.160156-.839844-5.65625-2.34375l-181.015625-181.007813c-3.125-3.125-3.125-8.1875 0-11.3125l237.597656-237.601562c53.261719-52.226563 138.652344-51.808594 191.398438.941406 52.742187 52.75 53.152344 138.144531.914062 191.394531l-237.601562 237.601563c-1.496094 1.492187-3.523438 2.328125-5.636719 2.328125zm-169.664063-189.015625 169.664063 169.703125 231.933594-231.925782c46.867187-46.867187 46.867187-122.847656 0-169.714843-46.863281-46.863281-122.847657-46.863281-169.710938 0zm0 0"/><path d="m358.550781 168.695312c-26.71875.003907-49.71875-18.863281-54.933593-45.066406-5.21875-26.199218 8.800781-52.441406 33.480468-62.667968 24.683594-10.226563 53.152344-1.597657 67.996094 20.613281 14.847656 22.210937 11.9375 51.816406-6.953125 70.710937-10.476563 10.539063-24.730469 16.445313-39.589844 16.410156zm0-96c-18.105469-.003906-33.957031 12.152344-38.644531 29.644532-4.6875 17.488281 2.957031 35.945312 18.636719 44.996094 15.679687 9.050781 35.488281 6.441406 48.289062-6.363282 11.433594-11.4375 14.855469-28.640625 8.664063-43.585937-6.1875-14.941407-20.769532-24.6875-36.945313-24.691407zm0 0"/></g></svg>