<svg height="480pt" viewBox="-88 0 480 480" width="480pt" xmlns="http://www.w3.org/2000/svg"><path d="m200 248v-192c0-26.507812-21.492188-48-48-48s-48 21.492188-48 48v192c0 26.507812 21.492188 48 48 48s48-21.492188 48-48zm0 0" fill="#9bc9ff"/><g fill="#1e81ce"><path d="m152 304c-30.910156-.039062-55.960938-25.089844-56-56v-192c0-30.929688 25.070312-56 56-56s56 25.070312 56 56v192c-.039062 30.910156-25.089844 55.960938-56 56zm0-288c-22.082031.027344-39.972656 17.917969-40 40v192c0 22.089844 17.910156 40 40 40s40-17.910156 40-40v-192c-.027344-22.082031-17.917969-39.972656-40-40zm0 0"/><path d="m304 224c0-4.417969-3.582031-8-8-8s-8 3.582031-8 8c0 75.109375-60.890625 136-136 136s-136-60.890625-136-136c0-4.417969-3.582031-8-8-8s-8 3.582031-8 8c.132812 80.75 63.363281 147.3125 144 151.59375v88.40625h-88c-4.417969 0-8 3.582031-8 8s3.582031 8 8 8h192c4.417969 0 8-3.582031 8-8s-3.582031-8-8-8h-88v-88.40625c80.636719-4.28125 143.867188-70.84375 144-151.59375zm0 0"/></g></svg>