<svg height="479pt" viewBox="0 -101 479.90169 479" width="479pt" xmlns="http://www.w3.org/2000/svg"><path d="m22.609375 186.566406h65.390625v-96h-65.390625c-3.875 0-7.59375 1.535156-10.332031 4.277344-2.742188 2.738281-4.28125 6.457031-4.277344 10.332031v66.78125c-.003906 3.875 1.535156 7.59375 4.277344 10.332031 2.738281 2.742188 6.457031 4.28125 10.332031 4.277344zm0 0" fill="#9bc9ff"/><path d="m207.128906 265.984375c4.910156 3.269531 11.21875 3.574219 16.421875.789063 5.199219-2.78125 8.449219-8.203126 8.449219-14.101563v-228.210937c0-5.898438-3.25-11.316407-8.449219-14.101563-5.203125-2.785156-11.511719-2.480469-16.421875.792969l-119.128906 79.414062v96zm0 0" fill="#9bc9ff"/><g fill="#1e81ce"><path d="m227.328125 3.304688c-7.800781-4.195313-17.28125-3.738282-24.640625 1.191406l-117.085938 78.070312h-62.992187c-12.480469.019532-22.5898438 10.128906-22.609375 22.609375v66.78125c.0195312 12.480469 10.128906 22.59375 22.609375 22.609375h62.992187l117.109376 78.074219c7.363281 4.894531 16.824218 5.34375 24.617187 1.167969 7.796875-4.171875 12.664063-12.296875 12.671875-21.136719v-228.210937c0-8.847657-4.871094-16.980469-12.671875-21.15625zm-211.328125 168.652343v-66.78125c.007812-3.648437 2.960938-6.601562 6.609375-6.609375h57.390625v80h-57.390625c-3.648437-.007812-6.601563-2.960937-6.609375-6.609375zm208 80.714844c0 2.949219-1.625 5.660156-4.226562 7.054687-2.601563 1.390626-5.757813 1.238282-8.214844-.398437l-115.558594-77.042969v-87.4375l115.558594-77.039062c2.457031-1.640625 5.613281-1.792969 8.214844-.402344 2.601562 1.394531 4.226562 4.105469 4.226562 7.054688zm0 0"/><path d="m387.3125 138.566406 90.34375-90.34375c3.03125-3.140625 2.988281-8.128906-.097656-11.214844-3.085938-3.085937-8.074219-3.128906-11.214844-.097656l-90.34375 90.34375-90.34375-90.34375c-3.140625-3.03125-8.128906-2.988281-11.214844.097656-3.085937 3.085938-3.128906 8.074219-.097656 11.214844l90.34375 90.34375-90.34375 90.34375c-2.078125 2.007813-2.914062 4.984375-2.179688 7.78125.730469 2.796875 2.914063 4.980469 5.710938 5.714844 2.796875.730469 5.773438-.105469 7.78125-2.183594l90.34375-90.34375 90.34375 90.34375c3.140625 3.03125 8.128906 2.988282 11.214844-.097656 3.085937-3.085938 3.128906-8.074219.097656-11.214844zm0 0"/></g></svg>