<svg height="449pt" viewBox="0 0 449 449.76994" width="449pt" xmlns="http://www.w3.org/2000/svg"><path d="m178.234375 271.898438 264-264-433.875 230.222656zm0 0" fill="#9bc9ff"/><path d="m212.007812 441.769531 230.226563-433.871093-264 264zm0 0" fill="#9bc9ff"/><path d="m449.777344 10.242188c.1875-.589844.304687-1.199219.351562-1.816407.023438-.339843.023438-.675781 0-1.015625-.042968-.636718-.164062-1.265625-.359375-1.871094-.078125-.300781-.171875-.59375-.28125-.882812-.382812-.886719-.925781-1.703125-1.597656-2.398438-.695313-.675781-1.511719-1.21875-2.402344-1.601562-.296875-.125-.589843-.183594-.886719-.277344-.605468-.195312-1.230468-.316406-1.863281-.3593748-.339843-.0273437-.679687-.0273437-1.015625 0-.621094.0429688-1.234375.1601568-1.824218.3515628-.324219.085937-.636719.191406-.945313.320312-.152344.0625-.3125.078125-.457031.152344l-433.863282 230.253906c-2.988281 1.585938-4.6562495 4.882813-4.164062 8.230469.492188 3.347656 3.039062 6.023437 6.355469 6.683594l164.625 32.734375 32.710937 164.59375c.660156 3.3125 3.335938 5.855468 6.679688 6.351562.386718.046875.777344.074219 1.167968.078125 2.960938 0 5.675782-1.632812 7.066407-4.246093l230.222656-433.875c.082031-.140626.089844-.300782.152344-.445313.128906-.3125.238281-.632813.328125-.960937zm-50.945313 29.742187-223.199219 223.203125-143.671874-28.53125zm-183.359375 378.195313-28.558594-143.648438 223.199219-223.203125zm0 0" fill="#1e81ce"/></svg>