<svg height="480pt" viewBox="-88 0 480 480" width="480pt" xmlns="http://www.w3.org/2000/svg"><path d="m88 72h128v304h-128zm0 0" fill="#9bc9ff"/><g fill="#1e81ce"><path d="m224 72c0-39.765625-32.234375-72-72-72s-72 32.234375-72 72v304c0 .113281.0625.207031.0625.328125.023438.945313.214844 1.878906.5625 2.761719 0 .054687.0625.09375.085938.148437.273437.628907.625 1.21875 1.042968 1.761719l64 80c1.515625 1.898438 3.816406 3.003906 6.246094 3.003906s4.730469-1.105468 6.246094-3.003906l64-80c.421875-.539062.773437-1.132812 1.042968-1.761719 0-.054687.0625-.09375.085938-.148437.347656-.882813.539062-1.816406.5625-2.761719 0-.121094.0625-.214844.0625-.328125zm-128 8h112v288h-112zm56-64c27.824219.035156 51.417969 20.464844 55.433594 48h-110.867188c4.015625-27.535156 27.609375-47.964844 55.433594-48zm0 427.199219-47.351562-59.199219h94.703124zm0 0"/><path d="m296 480h-288c-4.417969 0-8-3.582031-8-8s3.582031-8 8-8h288c4.417969 0 8 3.582031 8 8s-3.582031 8-8 8zm0 0"/></g></svg>