<svg height="480pt" viewBox="-80 0 480 480" width="480pt" xmlns="http://www.w3.org/2000/svg"><path d="m312 160c0-83.949219-68.050781-152-152-152s-152 68.050781-152 152c0 83.945312 152 312 152 312s152-228.054688 152-312zm-200 0c0-26.507812 21.492188-48 48-48s48 21.492188 48 48-21.492188 48-48 48c-26.496094-.03125-47.96875-21.503906-48-48zm0 0" fill="#9bc9ff"/><g fill="#1e81ce"><path d="m160 216c-30.929688 0-56-25.070312-56-56s25.070312-56 56-56 56 25.070312 56 56c-.035156 30.914062-25.085938 55.964844-56 56zm0-96c-22.089844 0-40 17.910156-40 40s17.910156 40 40 40 40-17.910156 40-40c-.027344-22.082031-17.917969-39.972656-40-40zm0 0"/><path d="m160 480c-2.675781 0-5.171875-1.335938-6.65625-3.558594-6.265625-9.402344-153.34375-231.050781-153.34375-316.441406 0-88.367188 71.632812-160 160-160s160 71.632812 160 160c0 85.390625-147.078125 307.039062-153.34375 316.441406-1.484375 2.222656-3.980469 3.558594-6.65625 3.558594zm0-464c-79.492188.09375-143.90625 64.507812-144 144 0 70.71875 114.839844 252.40625 144 297.382812 29.160156-44.976562 144-226.679687 144-297.382812-.09375-79.492188-64.507812-143.90625-144-144zm0 0"/></g></svg>