<svg height="480pt" viewBox="0 0 480 480" width="480pt" xmlns="http://www.w3.org/2000/svg"><path d="m240 472c128.128906 0 232-103.871094 232-232s-103.871094-232-232-232-232 103.871094-232 232 103.871094 232 232 232zm-40-367.769531 135.769531 135.769531-135.769531 135.769531zm0 0" fill="#9bc9ff"/><g fill="#1e81ce"><path d="m240 480c-132.546875 0-240-107.453125-240-240s107.453125-240 240-240 240 107.453125 240 240c-.148438 132.484375-107.515625 239.851562-240 240zm0-464c-123.710938 0-224 100.289062-224 224s100.289062 224 224 224 224-100.289062 224-224c-.140625-123.652344-100.347656-223.859375-224-224zm0 0"/><path d="m200 383.769531c-4.417969 0-8-3.582031-8-8v-271.539062c0-3.234375 1.949219-6.148438 4.9375-7.386719s6.429688-.554688 8.71875 1.730469l135.769531 135.769531c3.121094 3.125 3.121094 8.1875 0 11.3125l-135.769531 135.769531c-1.5 1.5-3.535156 2.339844-5.65625 2.34375zm8-260.226562v232.914062l116.457031-116.457031zm0 0"/></g></svg>