<svg height="480pt" viewBox="0 -28 480 479" width="480pt" xmlns="http://www.w3.org/2000/svg"><g fill="#1e81ce"><path d="m408 424.496094h-336c-39.746094-.042969-71.9570312-32.253906-72-72v-64c0-4.417969 3.582031-8 8-8s8 3.582031 8 8v64c.035156 30.914062 25.085938 55.964844 56 56h336c30.914062-.035156 55.964844-25.085938 56-56v-64c0-4.417969 3.582031-8 8-8s8 3.582031 8 8v64c-.042969 39.746094-32.253906 71.957031-72 72zm0 0"/><path d="m381.847656 3.128906c-.078125-.085937-.105468-.199218-.191406-.289062-2.28125-2.277344-5.707031-2.964844-8.6875-1.742188h-124.3125c-4.417969 0-8 3.582032-8 8 0 4.417969 3.582031 8 8 8h107.433594l-257.746094 257.742188c-2.078125 2.011718-2.914062 4.984375-2.179688 7.78125.730469 2.796875 2.914063 4.980468 5.710938 5.714844 2.796875.730468 5.773438-.101563 7.78125-2.183594l259-258.992188v109.9375c0 4.417969 3.582031 8 8 8s8-3.582031 8-8v-128c-.019531-2.304687-1.042969-4.484375-2.808594-5.96875zm0 0"/></g></svg>