<svg height="480pt" viewBox="0 -64 480.2079 480" width="480pt" xmlns="http://www.w3.org/2000/svg"><path d="m328 8.105469h-176c-79.527344 0-144 64.46875-144 144 0 79.527343 64.472656 144 144 144h80l96 48v-48c79.527344 0 144-64.472657 144-144 0-79.53125-64.472656-144-144-144zm0 0" fill="#9bc9ff"/><g fill="#1e81ce"><path d="m328 352.105469c-1.238281.011719-2.460938-.261719-3.574219-.800781l-94.3125-47.199219h-78.113281c-83.949219 0-152-68.054688-152-152 0-83.949219 68.050781-152 152-152h176c82.46875-.1132815 149.984375 65.554687 152.15625 147.996093 2.167969 82.441407-61.796875 151.574219-144.15625 155.800782v40.203125c0 4.417969-3.582031 8-8 8zm-176-336c-75.109375 0-136 60.886719-136 136 0 75.109375 60.890625 136 136 136h80c1.238281-.015625 2.460938.257812 3.574219.796875l84.425781 42.257812v-35.054687c0-4.417969 3.582031-8 8-8 75.109375 0 136-60.890625 136-136 0-75.113281-60.890625-136-136-136zm0 0"/><path d="m336 216.105469h-192c-4.417969 0-8-3.582031-8-8s3.582031-8 8-8h192c4.417969 0 8 3.582031 8 8s-3.582031 8-8 8zm0 0"/><path d="m336 120.105469h-192c-4.417969 0-8-3.582031-8-8s3.582031-8 8-8h192c4.417969 0 8 3.582031 8 8s-3.582031 8-8 8zm0 0"/></g></svg>