<svg height="480pt" viewBox="-63 0 479 480" width="480pt" xmlns="http://www.w3.org/2000/svg"><path d="m256.5 72h-216v368c0 17.671875 14.328125 32 32 32h208c17.671875 0 32-14.328125 32-32v-368zm0 0" fill="#9bc9ff"/><g fill="#1e81ce"><path d="m344.5 64h-80v-24c-.027344-22.082031-17.917969-39.9726562-40-40h-96c-22.082031.0273438-39.972656 17.917969-40 40v24h-80c-4.417969 0-8 3.582031-8 8s3.582031 8 8 8h24v360c.027344 22.082031 17.917969 39.972656 40 40h208c22.082031-.027344 39.972656-17.917969 40-40v-360h24c4.417969 0 8-3.582031 8-8s-3.582031-8-8-8zm-240-24c0-13.253906 10.746094-24 24-24h96c13.253906 0 24 10.746094 24 24v24h-144zm200 400c0 13.253906-10.746094 24-24 24h-208c-13.253906 0-24-10.746094-24-24v-360h256zm0 0"/><path d="m112.5 120c-4.417969 0-8 3.582031-8 8v288c0 4.417969 3.582031 8 8 8s8-3.582031 8-8v-288c0-4.417969-3.582031-8-8-8zm0 0"/><path d="m240.5 120c-4.417969 0-8 3.582031-8 8v288c0 4.417969 3.582031 8 8 8s8-3.582031 8-8v-288c0-4.417969-3.582031-8-8-8zm0 0"/><path d="m176.5 120c-4.417969 0-8 3.582031-8 8v288c0 4.417969 3.582031 8 8 8s8-3.582031 8-8v-288c0-4.417969-3.582031-8-8-8zm0 0"/></g></svg>