<svg height="480pt" viewBox="0 0 480 480" width="480pt" xmlns="http://www.w3.org/2000/svg"><g fill="#1e81ce"><path d="m408 480h-336c-39.746094-.046875-71.9570312-32.253906-72-72v-64c0-4.421875 3.582031-8 8-8s8 3.578125 8 8v64c.035156 30.910156 25.085938 55.964844 56 56h336c30.914062-.035156 55.964844-25.089844 56-56v-64c0-4.421875 3.582031-8 8-8s8 3.578125 8 8v64c-.042969 39.746094-32.253906 71.953125-72 72zm0 0"/><path d="m336.167969 92.847656-90.511719-90.503906c-3.125-3.125-8.1875-3.125-11.3125 0l-90.511719 90.503906c-3.125 3.125-3.125 8.191406 0 11.320313 3.125 3.125 8.195313 3.125 11.320313 0l76.847656-76.859375v367.203125c0 4.417969 3.582031 8 8 8s8-3.582031 8-8v-367.203125l76.847656 76.859375c3.125 3.125 8.195313 3.125 11.320313 0 3.125-3.128907 3.125-8.195313 0-11.320313zm0 0"/></g></svg>