<svg height="481pt" viewBox="0 0 481 481.72887" width="481pt" xmlns="http://www.w3.org/2000/svg"><g fill="#9bc9ff"><path d="m278.445312 161.570312c1.617188.292969 3.195313.746094 4.722657 1.359376-1.441407-.640626-2.882813-1.199219-4.320313-1.921876-.117187.199219-.25.386719-.402344.5625zm0 0"/><path d="m336.125 241.96875c-22.164062-22.148438-49.410156-38.542969-79.359375-47.761719-7.019531-2.128906-14.558594-1.789062-21.359375.960938-5.671875 2.195312-11.539062 3.855469-17.519531 4.960937-1.921875.398438-3.761719.640625-5.761719.878906-1.757812.242188-3.597656.402344-5.4375.5625h-.640625c-1.839844.078126-3.761719.160157-5.679687.160157h-.882813c-1.597656 0-3.199219-.082031-4.796875-.160157h-.640625c-1.839844-.160156-3.601563-.320312-5.441406-.5625-1.839844-.238281-3.839844-.480468-5.757813-.878906-5.984375-1.105468-11.847656-2.765625-17.523437-4.960937-6.828125-2.75-14.390625-3.089844-21.4375-.960938-80.558594 24.796875-135.527344 99.234375-135.519531 183.523438v64c0 17.671875 14.324218 32 32 32h320c17.671874 0 32-14.328125 32-32v-64c.03125-50.929688-20.207032-99.777344-56.242188-135.761719zm0 0"/><path d="m188.605469 201.007812c1.839843.242188 3.601562.402344 5.441406.5625h.640625c1.597656.078126 3.199219.160157 4.796875.160157h.882813c1.917968 0 3.839843-.082031 5.679687-.160157h.640625c1.839844-.160156 3.679688-.320312 5.4375-.5625 2-.238281 3.839844-.480468 5.761719-.878906 5.980469-1.105468 11.847656-2.765625 17.519531-4.960937 17.242188-6.886719 32.171875-18.542969 43.039062-33.597657.152344-.175781.285157-.363281.402344-.5625 23.144532-33.292968 22.695313-77.585937-1.125-110.40625-23.816406-32.816406-65.789062-46.972656-104.617187-35.289062-38.832031 11.683594-66.019531 46.652344-67.773438 87.164062-1.75 40.511719 22.316407 77.699219 59.992188 92.691407 5.675781 2.195312 11.539062 3.855469 17.523437 4.960937 1.917969.398438 3.839844.640625 5.757813.878906zm0 0"/><path d="m296.367188 105.730469c.046874 19.796875-6.078126 39.121093-17.519532 55.277343 1.4375.722657 2.878906 1.28125 4.320313 1.921876.316406.078124.558593.238281.878906.320312 1.4375.558594 2.960937 1.039062 4.480469 1.519531 4.839844 1.535157 9.828125 2.582031 14.878906 3.121094 1.359375.160156 2.640625.238281 4 .316406 1.679688.082031 3.28125.160157 4.960938.160157 1.679687 0 3.277343-.078126 4.957031-.160157 1.363281-.078125 2.640625-.15625 4-.316406 5.054687-.539063 10.039062-1.585937 14.882812-3.121094 1.519531-.480469 3.039063-.960937 4.480469-1.519531.320312-.082031.558594-.242188.878906-.320312 2.617188-1.042969 5.179688-2.21875 7.679688-3.519532 27.570312-14.320312 44.359375-43.304687 43.058594-74.347656-1.300782-31.039062-20.453126-58.519531-49.125-70.480469-28.671876-11.964843-61.679688-6.246093-84.652344 14.667969 23.851562 18.195312 37.84375 46.480469 37.839844 76.480469zm0 0"/><path d="m359.40625 162.128906c-5.867188-1.742187-12.152344-1.460937-17.839844.800782-.320312.078124-.558594.238281-.878906.320312-1.441406.558594-2.960938 1.039062-4.480469 1.519531-4.84375 1.535157-9.828125 2.582031-14.882812 3.121094-1.359375.160156-2.636719.238281-4 .316406-1.679688.082031-3.277344.160157-4.957031.160157-1.679688 0-3.28125-.078126-4.960938-.160157-1.359375-.078125-2.640625-.15625-4-.316406-5.050781-.539063-10.039062-1.585937-14.878906-3.121094-1.519532-.480469-3.042969-.960937-4.480469-1.519531-.320313-.082031-.5625-.242188-.878906-.320312-1.527344-.613282-3.105469-1.066407-4.722657-1.359376-10.867187 15.054688-25.796874 26.710938-43.039062 33.597657 6.800781-2.75 14.339844-3.089844 21.359375-.960938 80.589844 24.769531 135.597656 99.210938 135.601563 183.523438v17.359375h53.359374c14.730469-.03125 26.652344-11.988282 26.640626-26.722656v-53.277344c.027343-70.265625-45.800782-132.320313-112.960938-152.960938zm0 0"/></g><path d="m431.132812 196.21875c-17.902343-17.769531-39.542968-31.320312-63.34375-39.675781 37.921876-30.289063 44.109376-85.589844 13.816407-123.511719s-85.589844-44.105469-123.511719-13.8125c-46.632812-30.78125-109.25-19.2109375-141.808594 26.195312-32.558594 45.40625-23.417968 108.425782 20.695313 142.714844-81.804688 26.925782-136.9609378 103.476563-136.613281 189.601563v64c.023437 22.078125 17.917968 39.972656 40 40h320c22.078124-.027344 39.972656-17.921875 40-40v-38.640625h45.359374c19.144532-.046875 34.640626-15.578125 34.640626-34.722656v-53.277344c.085937-44.601563-17.636719-87.394532-49.234376-118.871094zm-118.765624-179.851562c33.214843-.039063 62.148437 22.644531 70.03125 54.910156 7.886718 32.265625-7.324219 65.738281-36.816407 81.019531-2.167969 1.121094-4.382812 2.167969-6.6875 3.089844l-.25.101562c-.269531.070313-.539062.15625-.796875.265625-1.28125.488282-2.640625.917969-4.050781 1.359375-4.367187 1.402344-8.867187 2.347657-13.429687 2.824219-1.183594.152344-2.3125.214844-3.449219.28125-3.089844.148438-6.0625.140625-9.054688 0-1.183593-.074219-2.3125-.136719-3.601562-.296875-4.53125-.472656-9.003907-1.40625-13.34375-2.792969h-.105469c.21875-.367187.355469-.800781.5625-1.152344 1.875-3.351562 3.5625-6.808593 5.054688-10.351562.097656-.238281.214843-.464844.3125-.695312 1.46875-3.660157 2.722656-7.398438 3.761718-11.199219.207032-.738281.421875-1.472657.605469-2.21875.957031-3.742188 1.699219-7.539063 2.226563-11.367188.101562-.71875.167968-1.441406.246093-2.160156.5-4.066406.761719-8.160156.785157-12.253906-.011719-3.859375-.230469-7.710938-.65625-11.546875-.136719-1.246094-.402344-2.453125-.578126-3.6875-.367187-2.542969-.757812-5.078125-1.3125-7.566406-.316406-1.441407-.742187-2.839844-1.117187-4.257813-.601563-2.238281-1.226563-4.464844-1.96875-6.65625-.496094-1.453125-1.0625-2.871094-1.601563-4.304687-.796874-2.085938-1.671874-4.148438-2.621093-6.175782-.65625-1.40625-1.363281-2.789062-2.082031-4.167968-1.039063-1.972657-2.152344-3.917969-3.320313-5.832032-.800781-1.308594-1.597656-2.605468-2.472656-3.886718-1.285157-1.902344-2.664063-3.742188-4.078125-5.597657-.914063-1.179687-1.808594-2.402343-2.769532-3.507812-1.597656-1.871094-3.285156-3.644531-5.007812-5.40625-.953125-.984375-1.855469-1.992188-2.855469-2.9375-.289062-.269531-.527343-.574219-.800781-.796875 12.074219-8.492188 26.480469-13.046875 41.242188-13.035156zm-200 89.363281c0-48.601563 39.398437-88 88-88 48.601562 0 88 39.398437 88 88 0 2.269531-.085938 4.53125-.257813 6.78125-.144531 1.890625-.382813 3.753906-.640625 5.601562-.046875.335938-.070312.671875-.117188 1.007813-1.902343 12.140625-6.324218 23.75-12.976562 34.078125-.679688 1.058593-1.335938 2.128906-2.066406 3.160156l-.046875.113281c-.121094.144532-.222657.289063-.335938.433594-8.089843 11.320312-18.75 20.558594-31.105469 26.957031-7.699218 4.058594-15.984374 6.890625-24.558593 8.402344-1.703125.351563-3.335938.566406-5.230469.800781-1.488281.199219-3.042969.335938-4.34375.476563h-.984375c-1.722656.074219-3.527344.152343-5.335937.152343h-.882813c-1.460937 0-2.941406-.078124-4.796875-.132812-1.6875-.144531-3.3125-.296875-5.050781-.523438-1.734375-.222656-3.421875-.421874-5.320313-.796874-8.546875-1.523438-16.804687-4.367188-24.476562-8.425782-29.21875-15.066406-47.546875-45.214844-47.472656-78.085937zm272 336c0 13.253906-10.746094 24-24 24h-320c-13.257813 0-24-10.746094-24-24v-64c-.355469-80.886719 52.453124-152.40625 129.863281-175.875 2.246093-.683594 4.585937-1.03125 6.9375-1.03125 3.175781.007812 6.328125.617187 9.277343 1.800781 6.078126 2.355469 12.359376 4.140625 18.769532 5.335938 2.136718.441406 4.261718.71875 6.34375.976562 1.917968.261719 3.757812.421875 5.777344.605469h.957031c1.738281.089843 3.464843.167969 5.191406.167969h.882813c2.039062 0 4.070312-.078126 6.320312-.15625.230469 0 .925781-.050782 1.175781-.066407 1.808594-.167969 3.621094-.328125 5.222657-.550781 2.230468-.273438 4.289062-.542969 6.25-.960938 6.5-1.203124 12.875-3.011718 19.039062-5.398437 5.113281-2.050781 10.769531-2.3125 16.046875-.738281 77.234375 23.738281 129.949219 95.085937 129.945313 175.890625zm80-73.363281c.007812 10.3125-8.328126 18.6875-18.640626 18.722656h-45.359374v-9.359375c.105468-53.070313-20.988282-103.980469-58.59375-141.425781-2.824219-2.816407-5.742188-5.535157-8.71875-8.175782-.921876-.800781-1.878907-1.601562-2.816407-2.351562-2.097656-1.792969-4.191406-3.585938-6.398437-5.28125-1.152344-.902344-2.335938-1.734375-3.503906-2.605469-2.019532-1.515625-4-3.035156-6.097657-4.472656-1.28125-.882813-2.601562-1.707031-3.894531-2.5625-2.007812-1.328125-4-2.65625-6.074219-3.910157-1.390625-.847656-2.816406-1.640624-4.230469-2.457031-2.015624-1.160156-4-2.320312-6.074218-3.40625-1.496094-.800781-3.023438-1.539062-4.535156-2.296875-2.007813-1-4-2-6.070313-2.9375-1.601563-.734375-3.203125-1.414062-4.800781-2.101562-2-.855469-4-1.695313-6.03125-2.480469-1.699219-.65625-3.410156-1.273437-5.121094-1.878906-1.183594-.425781-2.34375-.898438-3.535156-1.296875.800781-.609375 1.488281-1.335938 2.261718-1.96875 1.601563-1.3125 3.144532-2.664063 4.664063-4.070313 1.519531-1.410156 2.929687-2.761719 4.328125-4.21875 1.402344-1.457031 2.832031-3.046875 4.191406-4.632812.691406-.796875 1.472656-1.535157 2.144532-2.398438 1.496093.566407 3.074218 1.0625 4.601562 1.550781 5.328125 1.695313 10.816406 2.851563 16.375 3.449219 1.527344.175781 2.96875.273438 4.550781.367188 1.816407.089843 3.546875.167969 5.371094.167969s3.550781-.078126 5.421875-.175782c1.527344-.085937 2.96875-.183594 4.402344-.351562 5.574218-.589844 11.074218-1.742188 16.414062-3.441406 1.601563-.503907 3.199219-1.015626 4.710938-1.597657.25-.082031.496094-.175781.738281-.273437.238281-.09375.3125-.101563.464844-.167969 3.992187-1.589844 8.402343-1.796875 12.527343-.582031 23.664063 7.328125 45.203126 20.285156 62.765626 37.757812 28.601562 28.488282 44.644531 67.21875 44.5625 107.585938zm0 0" fill="#1e81ce"/></svg>