<svg height="424.90864pt" viewBox="0 0 424.90864 424.90864" width="424.90864pt" xmlns="http://www.w3.org/2000/svg"><path d="m177.007812 9.007812c-92.785156 0-168 75.214844-168 168 0 92.78125 75.214844 168 168 168 92.78125 0 168-75.21875 168-168 0-92.785156-75.21875-168-168-168zm0 0" fill="#9bc9ff"/><path d="m422.664062 411.351562-115.824218-115.824218c64.683594-70.832032 60.957031-180.355469-8.390625-246.628906-69.34375-66.269532-178.925781-65.027344-246.753907 2.796874-67.824218 67.828126-69.066406 177.410157-2.796874 246.753907 66.273437 69.347656 175.796874 73.074219 246.628906 8.390625l115.824218 115.824218c3.136719 3.03125 8.128907 2.988282 11.214844-.097656 3.085938-3.085937 3.128906-8.078125.097656-11.214844zm-405.65625-234.34375c0-88.367187 71.632813-160 160-160 88.363282 0 160 71.632813 160 160 0 88.363282-71.636718 160-160 160-88.324218-.101562-159.898437-71.675781-160-160zm0 0" fill="#1e81ce"/></svg>