<?xml version="1.0" encoding="UTF-8" standalone="no"?>
<!-- Generator: Adobe Illustrator 19.0.0, SVG Export Plug-In . SVG Version: 6.00 Build 0)  -->

<svg
   xmlns:dc="http://purl.org/dc/elements/1.1/"
   xmlns:cc="http://creativecommons.org/ns#"
   xmlns:rdf="http://www.w3.org/1999/02/22-rdf-syntax-ns#"
   xmlns:svg="http://www.w3.org/2000/svg"
   xmlns="http://www.w3.org/2000/svg"
   xmlns:sodipodi="http://sodipodi.sourceforge.net/DTD/sodipodi-0.dtd"
   xmlns:inkscape="http://www.inkscape.org/namespaces/inkscape"
   version="1.1"
   id="Capa_1"
   x="0px"
   y="0px"
   viewBox="0 0 415.998 415.998"
   style="enable-background:new 0 0 415.998 415.998;"
   xml:space="preserve"
   sodipodi:docname="pranchetas (4).svg"
   inkscape:version="0.92.5 (2060ec1f9f, 2020-04-08)"><metadata
   id="metadata55"><rdf:RDF><cc:Work
       rdf:about=""><dc:format>image/svg+xml</dc:format><dc:type
         rdf:resource="http://purl.org/dc/dcmitype/StillImage" /></cc:Work></rdf:RDF></metadata><defs
   id="defs53" /><sodipodi:namedview
   pagecolor="#ffffff"
   bordercolor="#666666"
   borderopacity="1"
   objecttolerance="10"
   gridtolerance="10"
   guidetolerance="10"
   inkscape:pageopacity="0"
   inkscape:pageshadow="2"
   inkscape:window-width="1858"
   inkscape:window-height="1016"
   id="namedview51"
   showgrid="false"
   inkscape:zoom="0.56731044"
   inkscape:cx="12.070019"
   inkscape:cy="212.63161"
   inkscape:window-x="62"
   inkscape:window-y="27"
   inkscape:window-maximized="1"
   inkscape:current-layer="Capa_1" />
<g
   id="g6">
	<g
   id="g4">
		<polygon
   points="270.232,201.192 258.918,189.878 208.007,240.79 157.095,189.878 145.782,201.192 196.693,252.103     145.782,303.016 157.095,314.329 208.007,263.417 258.918,314.329 270.232,303.016 219.321,252.103   "
   id="polygon2"
   style="fill:#fc716b;fill-opacity:1" />
	</g>
</g>
<g
   id="g12">
	<g
   id="g10">
		<circle
   cx="208.239"
   cy="48"
   r="12"
   id="circle8"
   style="fill:#fd6f70;fill-opacity:1" />
	</g>
</g>
<g
   id="g18">
	<g
   id="g16">
		<path
   d="M367.998,95.999c0-17.673-14.326-32-31.999-32h-44.424c-5.926-6.583-13.538-11.62-22.284-14.136    c-7.367-2.118-13.037-7.788-15.156-15.155C248.37,14.663,229.897,0,207.998,0c-21.898,0-40.37,14.663-46.134,34.706    c-2.122,7.376-7.806,13.039-15.182,15.164c-8.736,2.518-16.341,7.55-22.262,14.129H79.999c-17.674,0-32,14.327-32,32v287.999    c0,17.673,14.326,32,32,32c73.466,0,163.758,0,256,0c17.674,0,32-14.327,32-32C367.999,293.119,367.998,206.096,367.998,95.999z     M128,95.742c0.11-14.066,9.614-26.606,23.112-30.496c12.71-3.662,22.477-13.426,26.127-26.116    C181.157,25.51,193.805,16,207.998,16c14.194,0,26.842,9.51,30.758,23.13c3.652,12.698,13.413,22.459,26.111,26.11    c13.618,3.917,23.13,16.566,23.13,30.758v16H128V95.742z M335.999,399.998c-85.455,0-170.77,0-256,0c-8.823,0-16-7.178-16-16    V95.999c0-8.822,7.177-16,16-16h34.742c-1.73,4.892-2.698,10.143-2.74,15.617v32.383h191.998v-32c0-5.615-0.992-10.991-2.764-16    h34.764c8.822,0,15.999,7.178,15.999,16c0,45.743-0.001,260.254,0.002,287.999C351.999,392.82,344.822,399.998,335.999,399.998z"
   id="path14"
   style="stroke:none;stroke-opacity:1;fill:#fc716b;fill-opacity:1" />
	</g>
</g>
<g
   id="g20">
</g>
<g
   id="g22">
</g>
<g
   id="g24">
</g>
<g
   id="g26">
</g>
<g
   id="g28">
</g>
<g
   id="g30">
</g>
<g
   id="g32">
</g>
<g
   id="g34">
</g>
<g
   id="g36">
</g>
<g
   id="g38">
</g>
<g
   id="g40">
</g>
<g
   id="g42">
</g>
<g
   id="g44">
</g>
<g
   id="g46">
</g>
<g
   id="g48">
</g>
<path
   style="opacity:0;fill:#fd6f74;fill-opacity:1;stroke:#8c67c7;stroke-width:1.7627033;stroke-miterlimit:4;stroke-dasharray:none;stroke-opacity:1"
   d="m 64.850309,410.97881 c -3.794177,-2.00363 -8.418823,-6.66058 -11.016896,-11.09385 l -4.47772,-7.64067 V 240.29577 c 0,-147.890018 0.0931,-152.130992 3.485501,-158.780653 1.917025,-3.75768 6.081411,-8.683683 9.254192,-10.946673 5.369999,-3.83016 7.717911,-4.152959 33.971945,-4.670584 26.881209,-0.52999 28.409819,-0.751974 32.610009,-4.735605 2.42372,-2.298752 9.60097,-6.504558 15.94945,-9.346235 11.98014,-5.362501 15.54114,-9.09143 19.12502,-20.026919 2.97503,-9.077716 14.56974,-21.594914 24.4208,-26.3637272 11.49175,-5.56305997 28.16102,-5.56305997 39.65278,0 9.85104,4.7688132 21.44577,17.2860112 24.42079,26.3637272 3.58387,10.935489 7.14487,14.664418 19.12501,20.026919 6.34848,2.841677 13.52574,7.047483 15.94945,9.346235 4.20019,3.983631 5.72881,4.205615 32.61001,4.735605 26.25404,0.517625 28.60195,0.840424 33.97195,4.670584 3.17278,2.26299 7.33717,7.188993 9.25419,10.946673 3.39317,6.651177 3.48473,10.860999 3.45651,158.935523 l -0.0291,152.10339 -3.97301,7.01489 c -2.22765,3.93319 -7.05471,8.76025 -10.9879,10.9879 l -7.0148,3.97301 -136.60951,-0.0489 C 75.792492,414.43367 71.178724,414.32069 64.850309,410.97881 Z m 282.537831,-15.64514 5.15253,-5.1525 V 240.08019 89.979226 l -5.15253,-5.152518 c -5.08989,-5.089897 -5.39577,-5.152517 -25.16906,-5.152517 h -20.01653 l 0.69538,23.796499 0.69539,23.79649 h -95.59433 -95.59432 l 0.69538,-23.79649 0.69539,-23.796499 H 93.778897 c -19.773275,0 -20.079162,0.06261 -25.16906,5.152517 L 63.45732,89.979226 V 240.08019 390.18117 l 5.152517,5.1525 5.152518,5.15253 H 207.99899 342.23564 Z M 288.72546,99.158754 C 287.59504,79.631182 282.87419,72.650241 265.42031,64.69625 251.10615,58.173079 242.71503,49.697709 239.27945,38.292971 230.25288,8.3282564 186.36296,8.5510411 176.44198,38.611932 172.53887,50.438451 164.85106,58.191658 150.57767,64.69625 133.12379,72.650241 128.40295,79.631182 127.27252,99.158754 l -0.81084,14.006796 h 81.53731 81.53732 z"
   id="path873"
   inkscape:connector-curvature="0" /><path
   style="opacity:0;fill:#fd6f70;fill-opacity:1;stroke:#8c67c7;stroke-width:1.763;stroke-miterlimit:4;stroke-dasharray:none;stroke-opacity:1"
   d="m 151.53886,307.88719 -4.19357,-4.46385 25.45662,-25.50211 25.45661,-25.50211 -25.50497,-25.55056 -25.50498,-25.55056 4.82465,-4.82465 4.82465,-4.82465 25.55056,25.50497 25.55056,25.50498 25.55056,-25.50498 25.55056,-25.50497 4.82465,4.82465 4.82465,4.82465 -25.50497,25.55056 -25.50498,25.55056 25.50498,25.55056 25.50497,25.55056 -4.82465,4.82465 -4.82465,4.82465 -25.55056,-25.50498 -25.55056,-25.50497 -25.14057,25.09572 c -13.82732,13.80265 -25.5873,25.09572 -26.13329,25.09572 -0.54599,0 -2.87981,-2.00873 -5.18627,-4.46384 z"
   id="path875"
   inkscape:connector-curvature="0" /><path
   style="opacity:0;fill:#fd6f70;fill-opacity:1;stroke:#fd7072;stroke-width:3.10764599;stroke-miterlimit:4;stroke-dasharray:none;stroke-opacity:1"
   d="m 64.850309,410.97881 c -3.794177,-2.00363 -8.418823,-6.66058 -11.016896,-11.09385 l -4.47772,-7.64067 V 240.29577 c 0,-147.890018 0.0931,-152.130992 3.485501,-158.780653 1.917025,-3.75768 6.081411,-8.683683 9.254192,-10.946673 5.369999,-3.83016 7.717911,-4.152959 33.971945,-4.670584 26.881209,-0.52999 28.409819,-0.751974 32.610009,-4.735605 2.42372,-2.298752 9.60097,-6.504558 15.94945,-9.346235 11.98014,-5.362501 15.54114,-9.09143 19.12502,-20.026919 2.97503,-9.077716 14.56974,-21.594914 24.4208,-26.3637272 11.49175,-5.56305997 28.16102,-5.56305997 39.65278,0 9.85104,4.7688132 21.44577,17.2860112 24.42079,26.3637272 3.58387,10.935489 7.14487,14.664418 19.12501,20.026919 6.34848,2.841677 13.52574,7.047483 15.94945,9.346235 4.20019,3.983631 5.72881,4.205615 32.61001,4.735605 26.25404,0.517625 28.60195,0.840424 33.97195,4.670584 3.17278,2.26299 7.33717,7.188993 9.25419,10.946673 3.39317,6.651177 3.48473,10.860999 3.45651,158.935523 l -0.0291,152.10339 -3.97301,7.01489 c -2.22765,3.93319 -7.05471,8.76025 -10.9879,10.9879 l -7.0148,3.97301 -136.60951,-0.0489 C 75.792492,414.43367 71.178724,414.32069 64.850309,410.97881 Z m 282.537831,-15.64514 5.15253,-5.1525 V 240.08019 89.979226 l -5.15253,-5.152518 c -5.08989,-5.089897 -5.39577,-5.152517 -25.16906,-5.152517 h -20.01653 l 0.69538,23.796499 0.69539,23.79649 h -95.59433 -95.59432 l 0.69538,-23.79649 0.69539,-23.796499 H 93.778897 c -19.773275,0 -20.079162,0.06261 -25.16906,5.152517 L 63.45732,89.979226 V 240.08019 390.18117 l 5.152517,5.1525 5.152518,5.15253 H 207.99899 342.23564 Z M 288.72546,99.158754 C 287.59504,79.631182 282.87419,72.650241 265.42031,64.69625 251.10615,58.173079 242.71503,49.697709 239.27945,38.292971 230.25288,8.3282564 186.36296,8.5510411 176.44198,38.611932 172.53887,50.438451 164.85106,58.191658 150.57767,64.69625 133.12379,72.650241 128.40295,79.631182 127.27252,99.158754 l -0.81084,14.006796 h 81.53731 81.53732 z"
   id="path877"
   inkscape:connector-curvature="0" /><path
   style="opacity:0;fill:#fd6f70;fill-opacity:1;stroke:#fd7072;stroke-width:3.10764599;stroke-miterlimit:4;stroke-dasharray:none;stroke-opacity:1"
   d="m 64.850309,410.97881 c -3.794177,-2.00363 -8.418823,-6.66058 -11.016896,-11.09385 l -4.47772,-7.64067 V 240.29577 c 0,-147.890018 0.0931,-152.130992 3.485501,-158.780653 1.917025,-3.75768 6.081411,-8.683683 9.254192,-10.946673 5.369999,-3.83016 7.717911,-4.152959 33.971945,-4.670584 26.881209,-0.52999 28.409819,-0.751974 32.610009,-4.735605 2.42372,-2.298752 9.60097,-6.504558 15.94945,-9.346235 11.98014,-5.362501 15.54114,-9.09143 19.12502,-20.026919 2.97503,-9.077716 14.56974,-21.594914 24.4208,-26.3637272 11.49175,-5.56305997 28.16102,-5.56305997 39.65278,0 9.85104,4.7688132 21.44577,17.2860112 24.42079,26.3637272 3.58387,10.935489 7.14487,14.664418 19.12501,20.026919 6.34848,2.841677 13.52574,7.047483 15.94945,9.346235 4.20019,3.983631 5.72881,4.205615 32.61001,4.735605 26.25404,0.517625 28.60195,0.840424 33.97195,4.670584 3.17278,2.26299 7.33717,7.188993 9.25419,10.946673 3.39317,6.651177 3.48473,10.860999 3.45651,158.935523 l -0.0291,152.10339 -3.97301,7.01489 c -2.22765,3.93319 -7.05471,8.76025 -10.9879,10.9879 l -7.0148,3.97301 -136.60951,-0.0489 C 75.792492,414.43367 71.178724,414.32069 64.850309,410.97881 Z m 282.537831,-15.64514 5.15253,-5.1525 V 240.08019 89.979226 l -5.15253,-5.152518 c -5.08989,-5.089897 -5.39577,-5.152517 -25.16906,-5.152517 h -20.01653 l 0.69538,23.796499 0.69539,23.79649 h -95.59433 -95.59432 l 0.69538,-23.79649 0.69539,-23.796499 H 93.778897 c -19.773275,0 -20.079162,0.06261 -25.16906,5.152517 L 63.45732,89.979226 V 240.08019 390.18117 l 5.152517,5.1525 5.152518,5.15253 H 207.99899 342.23564 Z M 288.72546,99.158754 C 287.59504,79.631182 282.87419,72.650241 265.42031,64.69625 251.10615,58.173079 242.71503,49.697709 239.27945,38.292971 230.25288,8.3282564 186.36296,8.5510411 176.44198,38.611932 172.53887,50.438451 164.85106,58.191658 150.57767,64.69625 133.12379,72.650241 128.40295,79.631182 127.27252,99.158754 l -0.81084,14.006796 h 81.53731 81.53732 z"
   id="path879"
   inkscape:connector-curvature="0" /><path
   style="opacity:0;fill:#fd6f70;fill-opacity:1;stroke:#fd7072;stroke-width:3.10764599;stroke-miterlimit:4;stroke-dasharray:none;stroke-opacity:1"
   d="m 64.850309,410.97881 c -3.794177,-2.00363 -8.418823,-6.66058 -11.016896,-11.09385 l -4.47772,-7.64067 V 240.29577 c 0,-147.890018 0.0931,-152.130992 3.485501,-158.780653 1.917025,-3.75768 6.081411,-8.683683 9.254192,-10.946673 5.369999,-3.83016 7.717911,-4.152959 33.971945,-4.670584 26.881209,-0.52999 28.409819,-0.751974 32.610009,-4.735605 2.42372,-2.298752 9.60097,-6.504558 15.94945,-9.346235 11.98014,-5.362501 15.54114,-9.09143 19.12502,-20.026919 2.97503,-9.077716 14.56974,-21.594914 24.4208,-26.3637272 11.49175,-5.56305997 28.16102,-5.56305997 39.65278,0 9.85104,4.7688132 21.44577,17.2860112 24.42079,26.3637272 3.58387,10.935489 7.14487,14.664418 19.12501,20.026919 6.34848,2.841677 13.52574,7.047483 15.94945,9.346235 4.20019,3.983631 5.72881,4.205615 32.61001,4.735605 26.25404,0.517625 28.60195,0.840424 33.97195,4.670584 3.17278,2.26299 7.33717,7.188993 9.25419,10.946673 3.39317,6.651177 3.48473,10.860999 3.45651,158.935523 l -0.0291,152.10339 -3.97301,7.01489 c -2.22765,3.93319 -7.05471,8.76025 -10.9879,10.9879 l -7.0148,3.97301 -136.60951,-0.0489 C 75.792492,414.43367 71.178724,414.32069 64.850309,410.97881 Z m 282.537831,-15.64514 5.15253,-5.1525 V 240.08019 89.979226 l -5.15253,-5.152518 c -5.08989,-5.089897 -5.39577,-5.152517 -25.16906,-5.152517 h -20.01653 l 0.69538,23.796499 0.69539,23.79649 h -95.59433 -95.59432 l 0.69538,-23.79649 0.69539,-23.796499 H 93.778897 c -19.773275,0 -20.079162,0.06261 -25.16906,5.152517 L 63.45732,89.979226 V 240.08019 390.18117 l 5.152517,5.1525 5.152518,5.15253 H 207.99899 342.23564 Z M 288.72546,99.158754 C 287.59504,79.631182 282.87419,72.650241 265.42031,64.69625 251.10615,58.173079 242.71503,49.697709 239.27945,38.292971 230.25288,8.3282564 186.36296,8.5510411 176.44198,38.611932 172.53887,50.438451 164.85106,58.191658 150.57767,64.69625 133.12379,72.650241 128.40295,79.631182 127.27252,99.158754 l -0.81084,14.006796 h 81.53731 81.53732 z"
   id="path881"
   inkscape:connector-curvature="0" /></svg>