<?xml version="1.0" encoding="UTF-8" standalone="no"?>
<!-- Created with Inkscape (http://www.inkscape.org/) -->

<svg
   xmlns:dc="http://purl.org/dc/elements/1.1/"
   xmlns:cc="http://creativecommons.org/ns#"
   xmlns:rdf="http://www.w3.org/1999/02/22-rdf-syntax-ns#"
   xmlns:svg="http://www.w3.org/2000/svg"
   xmlns="http://www.w3.org/2000/svg"
   xmlns:sodipodi="http://sodipodi.sourceforge.net/DTD/sodipodi-0.dtd"
   xmlns:inkscape="http://www.inkscape.org/namespaces/inkscape"
   width="50.490788mm"
   height="19.395609mm"
   viewBox="0 0 50.490788 19.395609"
   version="1.1"
   id="svg8"
   sodipodi:docname="logo-ihooks-export.svg"
   inkscape:version="0.92.5 (2060ec1f9f, 2020-04-08)">
  <defs
     id="defs2" />
  <sodipodi:namedview
     id="base"
     pagecolor="#ffffff"
     bordercolor="#666666"
     borderopacity="1.0"
     inkscape:pageopacity="0.0"
     inkscape:pageshadow="2"
     inkscape:zoom="0.7"
     inkscape:cx="27.953383"
     inkscape:cy="24.353509"
     inkscape:document-units="mm"
     inkscape:current-layer="layer1"
     showgrid="false"
     inkscape:window-width="1858"
     inkscape:window-height="1016"
     inkscape:window-x="62"
     inkscape:window-y="27"
     inkscape:window-maximized="1"
     fit-margin-top="0"
     fit-margin-left="0"
     fit-margin-right="0"
     fit-margin-bottom="0" />
  <metadata
     id="metadata5">
    <rdf:RDF>
      <cc:Work
         rdf:about="">
        <dc:format>image/svg+xml</dc:format>
        <dc:type
           rdf:resource="http://purl.org/dc/dcmitype/StillImage" />
        <dc:title></dc:title>
      </cc:Work>
    </rdf:RDF>
  </metadata>
  <g
     inkscape:label="Camada 1"
     inkscape:groupmode="layer"
     id="layer1"
     transform="translate(-79.633888,-48.746185)">
    <g
       aria-label="ihooks"
       transform="scale(1.0005065,0.99949375)"
       style="font-style:normal;font-weight:normal;font-size:13.52050591px;line-height:1.25;font-family:sans-serif;letter-spacing:0px;word-spacing:0px;fill:#e81c2c;fill-opacity:1;stroke:none;stroke-width:0.33801267"
       id="text886">
      <path
         d="m 81.90653,52.40437 h 2.363448 l -1.478806,7.394027 h -2.363447 z m 0.574357,-2.878389 h 2.363448 L 84.46143,51.45371 h -2.363448 z"
         style="font-style:italic;font-variant:normal;font-weight:bold;font-stretch:normal;font-size:13.52050591px;font-family:sans-serif;-inkscape-font-specification:'sans-serif, Bold Italic';font-variant-ligatures:normal;font-variant-caps:normal;font-variant-numeric:normal;font-feature-settings:normal;text-align:start;writing-mode:lr-tb;text-anchor:start;fill:#e81c2c;fill-opacity:1;stroke-width:0.33801267"
         id="path938"
         inkscape:connector-curvature="0" />
      <path
         d="m 93.393679,55.295963 -0.897846,4.502434 h -2.376652 l 0.14524,-0.732801 0.541348,-2.70014 q 0.191453,-0.970466 0.21786,-1.333565 0.03301,-0.3631 -0.03301,-0.534747 -0.09243,-0.231063 -0.310285,-0.356498 -0.211258,-0.132036 -0.514941,-0.132036 -0.739403,0 -1.274149,0.574358 -0.534747,0.567755 -0.739403,1.577832 l -0.726199,3.637597 h -2.363448 l 2.053163,-10.272416 h 2.363448 l -0.792217,3.961086 q 0.666782,-0.646977 1.326963,-0.95066 0.660181,-0.310285 1.38638,-0.310285 1.280751,0 1.789091,0.785615 0.508339,0.785615 0.204657,2.284226 z"
         style="font-style:italic;font-variant:normal;font-weight:bold;font-stretch:normal;font-size:13.52050591px;font-family:sans-serif;-inkscape-font-specification:'sans-serif, Bold Italic';font-variant-ligatures:normal;font-variant-caps:normal;font-variant-numeric:normal;font-feature-settings:normal;text-align:start;writing-mode:lr-tb;text-anchor:start;fill:#e81c2c;fill-opacity:1;stroke-width:0.33801267"
         id="path940"
         inkscape:connector-curvature="0" />
      <path
         d="m 99.38152,53.916185 q -0.785615,0 -1.31376,0.567755 -0.521543,0.561154 -0.732801,1.624046 -0.211258,1.062891 0.08582,1.630646 0.297082,0.561154 1.082697,0.561154 0.772412,0 1.293955,-0.561154 0.528149,-0.567755 0.739409,-1.630646 0.21125,-1.062892 -0.0858,-1.624046 -0.29708,-0.567755 -1.069493,-0.567755 z m 0.336692,-1.690063 q 1.907928,0 2.772758,1.029882 0.87144,1.029882 0.50834,2.851982 -0.3631,1.822099 -1.64385,2.851981 -1.28075,1.029883 -3.188673,1.029883 -1.914525,0 -2.785964,-1.029883 -0.871439,-1.029882 -0.508339,-2.851981 0.3631,-1.8221 1.643851,-2.851982 1.287352,-1.029882 3.201877,-1.029882 z"
         style="font-style:italic;font-variant:normal;font-weight:bold;font-stretch:normal;font-size:13.52050591px;font-family:sans-serif;-inkscape-font-specification:'sans-serif, Bold Italic';font-variant-ligatures:normal;font-variant-caps:normal;font-variant-numeric:normal;font-feature-settings:normal;text-align:start;writing-mode:lr-tb;text-anchor:start;fill:#e81c2c;fill-opacity:1;stroke-width:0.33801267"
         id="path942"
         inkscape:connector-curvature="0" />
      <path
         d="m 108.67027,53.916185 q -0.78562,0 -1.31376,0.567755 -0.52155,0.561154 -0.73281,1.624046 -0.21125,1.062891 0.0858,1.630646 0.29708,0.561154 1.0827,0.561154 0.77241,0 1.29395,-0.561154 0.52814,-0.567755 0.7394,-1.630646 0.21126,-1.062892 -0.0858,-1.624046 -0.29708,-0.567755 -1.06949,-0.567755 z m 0.33669,-1.690063 q 1.90792,0 2.77276,1.029882 0.87144,1.029882 0.50834,2.851982 -0.3631,1.822099 -1.64385,2.851981 -1.28075,1.029883 -3.18868,1.029883 -1.91452,0 -2.78596,-1.029883 -0.87144,-1.029882 -0.50834,-2.851981 0.3631,-1.8221 1.64385,-2.851982 1.28735,-1.029882 3.20188,-1.029882 z"
         style="font-style:italic;font-variant:normal;font-weight:bold;font-stretch:normal;font-size:13.52050591px;font-family:sans-serif;-inkscape-font-specification:'sans-serif, Bold Italic';font-variant-ligatures:normal;font-variant-caps:normal;font-variant-numeric:normal;font-feature-settings:normal;text-align:start;writing-mode:lr-tb;text-anchor:start;fill:#e81c2c;fill-opacity:1;stroke-width:0.33801267"
         id="path944"
         inkscape:connector-curvature="0" />
      <path
         d="m 115.31829,49.525981 h 2.36345 l -1.11571,5.591733 3.2613,-2.713344 h 2.74635 l -4.29118,3.39333 3.09625,4.000697 h -2.86518 l -2.27103,-3.083045 -0.61397,3.083045 h -2.36344 z"
         style="font-style:italic;font-variant:normal;font-weight:bold;font-stretch:normal;font-size:13.52050591px;font-family:sans-serif;-inkscape-font-specification:'sans-serif, Bold Italic';font-variant-ligatures:normal;font-variant-caps:normal;font-variant-numeric:normal;font-feature-settings:normal;text-align:start;writing-mode:lr-tb;text-anchor:start;fill:#e81c2c;fill-opacity:1;stroke-width:0.33801267"
         id="path946"
         inkscape:connector-curvature="0" />
      <path
         d="m 129.46597,52.635434 -0.3565,1.795692 q -0.69979,-0.316887 -1.37318,-0.47533 -0.67338,-0.158444 -1.30055,-0.158444 -0.67339,0 -1.03649,0.171647 -0.35649,0.165045 -0.42911,0.514941 -0.0594,0.283878 0.15844,0.43572 0.21786,0.151841 0.84503,0.224461 l 0.40271,0.05942 q 1.76929,0.231063 2.29083,0.759208 0.52154,0.528144 0.29708,1.657054 -0.23766,1.181724 -1.22794,1.775887 -0.99027,0.594163 -2.71994,0.594163 -0.7328,0 -1.49201,-0.118833 -0.75921,-0.112231 -1.53822,-0.343294 l 0.3631,-1.795692 q 0.63377,0.343294 1.34016,0.514941 0.713,0.171647 1.47881,0.171647 0.69319,0 1.07609,-0.191453 0.38951,-0.191452 0.46873,-0.567755 0.0594,-0.316887 -0.15184,-0.468729 -0.20465,-0.158443 -0.91105,-0.244267 l -0.40271,-0.05281 q -1.53822,-0.198054 -2.06636,-0.732801 -0.52815,-0.534747 -0.31029,-1.624045 0.23767,-1.175122 1.15532,-1.742878 0.91765,-0.567755 2.5813,-0.567755 0.65358,0 1.35338,0.09903 0.69979,0.09903 1.50521,0.310285 z"
         style="font-style:italic;font-variant:normal;font-weight:bold;font-stretch:normal;font-size:13.52050591px;font-family:sans-serif;-inkscape-font-specification:'sans-serif, Bold Italic';font-variant-ligatures:normal;font-variant-caps:normal;font-variant-numeric:normal;font-feature-settings:normal;text-align:start;writing-mode:lr-tb;text-anchor:start;fill:#e81c2c;fill-opacity:1;stroke-width:0.33801267"
         id="path948"
         inkscape:connector-curvature="0" />
    </g>
    <path
       style="fill:#e81c2c;fill-opacity:1;stroke:none;stroke-width:0.29032448;stroke-linecap:butt;stroke-linejoin:miter;stroke-miterlimit:4;stroke-dasharray:none;stroke-opacity:1"
       d="m 93.235884,61.683315 c 3.478754,4.644579 9.944556,4.265538 14.133306,1.237628 l -2.34034,-1.359974 6.3302,0.186492 -1.36336,5.548218 -0.6199,-2.142036 c -6.22333,4.435773 -14.966202,2.589184 -16.139906,-3.470328 z"
       id="path888"
       inkscape:connector-curvature="0"
       sodipodi:nodetypes="ccccccc" />
    <path
       style="fill:#e81c2c;fill-opacity:1;stroke:none;stroke-width:0.26458332px;stroke-linecap:butt;stroke-linejoin:miter;stroke-opacity:1"
       d="m 97.419741,53.651094 -1.069078,3.674956 1.937705,1.870888 3.340872,-1.670437 -0.80181,-4.409945 z"
       id="path913"
       inkscape:connector-curvature="0" />
    <path
       style="fill:#e81c2c;fill-opacity:1;stroke:none;stroke-width:0.26458332px;stroke-linecap:butt;stroke-linejoin:miter;stroke-opacity:1"
       d="m 107.50917,53.450643 -2.20498,3.207234 2.13816,2.539061 2.87315,-1.536801 0.20045,-3.80859 z"
       id="path915"
       inkscape:connector-curvature="0" />
    <rect
       style="opacity:1;fill:none;fill-opacity:1;stroke:none;stroke-width:0.23244742;stroke-miterlimit:4;stroke-dasharray:none;stroke-opacity:1"
       id="rect917"
       width="50.490788"
       height="19.395609"
       x="79.633888"
       y="48.746185" />
  </g>
</svg>
