<?xml version="1.0" encoding="UTF-8" standalone="no"?>
<!-- Created with Inkscape (http://www.inkscape.org/) -->

<svg
   xmlns:dc="http://purl.org/dc/elements/1.1/"
   xmlns:cc="http://creativecommons.org/ns#"
   xmlns:rdf="http://www.w3.org/1999/02/22-rdf-syntax-ns#"
   xmlns:svg="http://www.w3.org/2000/svg"
   xmlns="http://www.w3.org/2000/svg"
   xmlns:sodipodi="http://sodipodi.sourceforge.net/DTD/sodipodi-0.dtd"
   xmlns:inkscape="http://www.inkscape.org/namespaces/inkscape"
   version="1.1"
   id="svg2"
   width="404"
   height="404"
   viewBox="0 0 404 404"
   sodipodi:docname="imperial_emblem_clear.svg"
   inkscape:version="0.92.5 (2060ec1f9f, 2020-04-08)">
  <metadata
     id="metadata8">
    <rdf:RDF>
      <cc:Work
         rdf:about="">
        <dc:format>image/svg+xml</dc:format>
        <dc:type
           rdf:resource="http://purl.org/dc/dcmitype/StillImage" />
        <dc:title />
      </cc:Work>
    </rdf:RDF>
  </metadata>
  <defs
     id="defs6">
    <inkscape:path-effect
       effect="mirror_symmetry"
       start_point="510,190"
       end_point="400,300"
       center_point="455,245"
       id="path-effect871"
       is_visible="false"
       mode="free"
       discard_orig_path="false"
       fuse_paths="true"
       oposite_fuse="false" />
    <inkscape:path-effect
       effect="mirror_symmetry"
       start_point="470,180"
       end_point="400,300"
       center_point="435,240"
       id="path-effect869"
       is_visible="true"
       mode="free"
       discard_orig_path="false"
       fuse_paths="true"
       oposite_fuse="false" />
  </defs>
  <sodipodi:namedview
     pagecolor="#ffffff"
     bordercolor="#666666"
     borderopacity="1"
     objecttolerance="10"
     gridtolerance="10"
     guidetolerance="10"
     inkscape:pageopacity="0"
     inkscape:pageshadow="2"
     inkscape:window-width="1858"
     inkscape:window-height="1016"
     id="namedview4"
     showgrid="false"
     showguides="true"
     inkscape:guide-bbox="true"
     inkscape:zoom="1.3081475"
     inkscape:cx="-23.550328"
     inkscape:cy="165.13417"
     inkscape:window-x="62"
     inkscape:window-y="27"
     inkscape:window-maximized="1"
     inkscape:current-layer="layer6"
     fit-margin-top="2"
     fit-margin-left="2"
     fit-margin-right="2"
     fit-margin-bottom="2">
    <sodipodi:guide
       position="202,324.46634"
       orientation="1,0"
       id="guide819"
       inkscape:locked="false"
       inkscape:label=""
       inkscape:color="rgb(0,0,255)" />
    <sodipodi:guide
       position="-243.84209,202"
       orientation="0,1"
       id="guide821"
       inkscape:locked="false"
       inkscape:label=""
       inkscape:color="rgb(0,0,255)" />
  </sodipodi:namedview>
  <g
     inkscape:groupmode="layer"
     id="layer2"
     inkscape:label="circulo-externo1"
     style="display:inline"
     transform="translate(-198,-98)">
    <path
       style="color:#000000;font-style:normal;font-variant:normal;font-weight:normal;font-stretch:normal;font-size:medium;line-height:normal;font-family:sans-serif;font-variant-ligatures:normal;font-variant-position:normal;font-variant-caps:normal;font-variant-numeric:normal;font-variant-alternates:normal;font-feature-settings:normal;text-indent:0;text-align:start;text-decoration:none;text-decoration-line:none;text-decoration-style:solid;text-decoration-color:#000000;letter-spacing:normal;word-spacing:normal;text-transform:none;writing-mode:lr-tb;direction:ltr;text-orientation:mixed;dominant-baseline:auto;baseline-shift:baseline;text-anchor:start;white-space:normal;shape-padding:0;clip-rule:nonzero;display:inline;overflow:visible;visibility:visible;opacity:1;isolation:auto;mix-blend-mode:normal;color-interpolation:sRGB;color-interpolation-filters:linearRGB;solid-color:#000000;solid-opacity:1;vector-effect:none;fill:#106dff;fill-opacity:1;fill-rule:nonzero;stroke:none;stroke-width:16;stroke-linecap:butt;stroke-linejoin:miter;stroke-miterlimit:4;stroke-dasharray:none;stroke-dashoffset:0;stroke-opacity:1;color-rendering:auto;image-rendering:auto;shape-rendering:auto;text-rendering:auto;enable-background:accumulate"
       d="m 584,300 c 0,60.04102 -29.28017,116.2865 -78.46289,150.72461 -49.18272,34.43811 -112.04865,42.71493 -168.46875,22.17969 l -5.47266,15.03515 c 61.30986,22.31497 129.67391,13.31339 183.11914,-24.10937 C 568.16008,426.40732 600,365.24459 600,300 Z"
       id="path840"
       inkscape:connector-curvature="0" />
  </g>
  <g
     inkscape:groupmode="layer"
     id="layer3"
     inkscape:label="circulo-externo2"
     style="display:inline"
     transform="translate(-198,-98)">
    <path
       style="color:#000000;font-style:normal;font-variant:normal;font-weight:normal;font-stretch:normal;font-size:medium;line-height:normal;font-family:sans-serif;font-variant-ligatures:normal;font-variant-position:normal;font-variant-caps:normal;font-variant-numeric:normal;font-variant-alternates:normal;font-feature-settings:normal;text-indent:0;text-align:start;text-decoration:none;text-decoration-line:none;text-decoration-style:solid;text-decoration-color:#000000;letter-spacing:normal;word-spacing:normal;text-transform:none;writing-mode:lr-tb;direction:ltr;text-orientation:mixed;dominant-baseline:auto;baseline-shift:baseline;text-anchor:start;white-space:normal;shape-padding:0;clip-rule:nonzero;display:inline;overflow:visible;visibility:visible;opacity:1;isolation:auto;mix-blend-mode:normal;color-interpolation:sRGB;color-interpolation-filters:linearRGB;solid-color:#000000;solid-opacity:1;vector-effect:none;fill:#106dff;fill-opacity:1;fill-rule:nonzero;stroke:none;stroke-width:16;stroke-linecap:butt;stroke-linejoin:miter;stroke-miterlimit:4;stroke-dasharray:none;stroke-dashoffset:0;stroke-opacity:1;color-rendering:auto;image-rendering:auto;shape-rendering:auto;text-rendering:auto;enable-background:accumulate"
       d="M 336.38477,125.2168 C 284.72508,144.01938 244.01938,184.72508 225.2168,236.38477 206.41421,288.04445 211.43238,345.39018 238.91992,393 l 13.85547,-8 C 227.6474,341.47705 223.0634,289.08259 240.25195,241.85742 c 17.18856,-47.22517 54.3803,-84.41691 101.60547,-101.60547 z"
       id="path845"
       inkscape:connector-curvature="0" />
  </g>
  <g
     inkscape:groupmode="layer"
     id="layer4"
     inkscape:label="circulo-externo3"
     style="display:inline"
     transform="translate(-198,-98)">
    <path
       style="color:#000000;font-style:normal;font-variant:normal;font-weight:normal;font-stretch:normal;font-size:medium;line-height:normal;font-family:sans-serif;font-variant-ligatures:normal;font-variant-position:normal;font-variant-caps:normal;font-variant-numeric:normal;font-variant-alternates:normal;font-feature-settings:normal;text-indent:0;text-align:start;text-decoration:none;text-decoration-line:none;text-decoration-style:solid;text-decoration-color:#000000;letter-spacing:normal;word-spacing:normal;text-transform:none;writing-mode:lr-tb;direction:ltr;text-orientation:mixed;dominant-baseline:auto;baseline-shift:baseline;text-anchor:start;white-space:normal;shape-padding:0;clip-rule:nonzero;display:inline;overflow:visible;visibility:visible;opacity:1;isolation:auto;mix-blend-mode:normal;color-interpolation:sRGB;color-interpolation-filters:linearRGB;solid-color:#000000;solid-opacity:1;vector-effect:none;fill:#106dff;fill-opacity:1;fill-rule:nonzero;stroke:none;stroke-width:16;stroke-linecap:butt;stroke-linejoin:miter;stroke-miterlimit:4;stroke-dasharray:none;stroke-dashoffset:0;stroke-opacity:1;color-rendering:auto;image-rendering:auto;shape-rendering:auto;text-rendering:auto;enable-background:accumulate"
       d="m 567.41797,270.48047 -15.75781,2.77734 c 8.72635,49.48962 -7.23134,100.10243 -42.76563,135.63672 l 11.31445,11.31445 c 39.21378,-39.21377 56.83893,-95.11437 47.20899,-149.72851 z"
       id="path848"
       inkscape:connector-curvature="0" />
  </g>
  <g
     inkscape:groupmode="layer"
     id="layer5"
     inkscape:label="circulo-externo4"
     style="display:inline"
     transform="translate(-198,-98)">
    <path
       style="color:#000000;font-style:normal;font-variant:normal;font-weight:normal;font-stretch:normal;font-size:medium;line-height:normal;font-family:sans-serif;font-variant-ligatures:normal;font-variant-position:normal;font-variant-caps:normal;font-variant-numeric:normal;font-variant-alternates:normal;font-feature-settings:normal;text-indent:0;text-align:start;text-decoration:none;text-decoration-line:none;text-decoration-style:solid;text-decoration-color:#000000;letter-spacing:normal;word-spacing:normal;text-transform:none;writing-mode:lr-tb;direction:ltr;text-orientation:mixed;dominant-baseline:auto;baseline-shift:baseline;text-anchor:start;white-space:normal;shape-padding:0;clip-rule:nonzero;display:inline;overflow:visible;visibility:visible;opacity:1;isolation:auto;mix-blend-mode:normal;color-interpolation:sRGB;color-interpolation-filters:linearRGB;solid-color:#000000;solid-opacity:1;vector-effect:none;fill:#106dff;fill-opacity:1;fill-rule:nonzero;stroke:none;stroke-width:25;stroke-linecap:butt;stroke-linejoin:miter;stroke-miterlimit:4;stroke-dasharray:none;stroke-dashoffset:0;stroke-opacity:1;color-rendering:auto;image-rendering:auto;shape-rendering:auto;text-rendering:auto;enable-background:accumulate"
       d="m 491.2168,391.2168 c -18.72045,18.72044 -42.74391,31.22693 -68.81641,35.82422 l 4.3418,24.61914 c 31.12233,-5.48771 59.80604,-20.41932 82.15234,-42.76563 z"
       id="path851"
       inkscape:connector-curvature="0" />
  </g>
  <g
     inkscape:groupmode="layer"
     id="layer6"
     inkscape:label="simbolo-externo"
     style="display:inline;opacity:1"
     transform="translate(-198,-98)">
    <path
       style="color:#000000;font-style:normal;font-variant:normal;font-weight:normal;font-stretch:normal;font-size:medium;line-height:normal;font-family:sans-serif;font-variant-ligatures:normal;font-variant-position:normal;font-variant-caps:normal;font-variant-numeric:normal;font-variant-alternates:normal;font-feature-settings:normal;text-indent:0;text-align:start;text-decoration:none;text-decoration-line:none;text-decoration-style:solid;text-decoration-color:#000000;letter-spacing:normal;word-spacing:normal;text-transform:none;writing-mode:lr-tb;direction:ltr;text-orientation:mixed;dominant-baseline:auto;baseline-shift:baseline;text-anchor:start;white-space:normal;shape-padding:0;clip-rule:nonzero;display:inline;overflow:visible;visibility:visible;opacity:1;isolation:auto;mix-blend-mode:normal;color-interpolation:sRGB;color-interpolation-filters:linearRGB;solid-color:#000000;solid-opacity:1;vector-effect:none;fill:#106dff;fill-opacity:1;fill-rule:nonzero;stroke:none;stroke-width:10;stroke-linecap:butt;stroke-linejoin:miter;stroke-miterlimit:4;stroke-dasharray:none;stroke-dashoffset:0;stroke-opacity:1;color-rendering:auto;image-rendering:auto;shape-rendering:auto;text-rendering:auto;enable-background:accumulate"
       d="M 202 73 C 130.81449 73 73 130.81449 73 202 C 73 273.18551 130.81449 331 202 331 C 273.18551 331 331 273.18551 331 202 C 331 130.81449 273.18551 73 202 73 z M 197 83.111328 L 197 93.189453 A 109 109 0 0 0 173.78906 96.714844 L 175.61133 103.51562 A 102 102 0 0 0 129.91992 129.91992 L 124.92578 124.92578 A 109 109 0 0 0 110.26367 143.26367 L 101.50195 138.20508 C 121.76696 106.32185 156.78978 84.769497 197 83.111328 z M 207 83.111328 C 247.21022 84.769497 282.23304 106.32185 302.49805 138.20508 L 293.73633 143.26367 A 109 109 0 0 0 279.07422 124.92578 L 274.08008 129.91992 A 102 102 0 0 0 228.36719 103.5918 L 230.21094 96.714844 A 109 109 0 0 0 207 93.154297 L 207 83.111328 z M 96.501953 146.86328 L 105.23633 151.90625 A 109 109 0 0 0 96.714844 173.78906 L 103.5918 175.63281 A 102 102 0 0 0 100 202 A 102 102 0 0 0 103.51562 228.38867 L 96.714844 230.21094 A 109 109 0 0 0 105.23633 252.09375 L 96.501953 257.13672 C 87.881462 240.65781 83 221.90641 83 202 C 83 182.09359 87.881462 163.34219 96.501953 146.86328 z M 307.49805 146.86328 C 316.11854 163.34219 321 182.09359 321 202 C 321 221.90641 316.11854 240.65781 307.49805 257.13672 L 298.73438 252.07617 A 109 109 0 0 0 307.28516 230.21094 L 300.4082 228.36719 A 102 102 0 0 0 304 202 A 102 102 0 0 0 300.48438 175.61133 L 307.28516 173.78906 A 109 109 0 0 0 298.76367 151.90625 L 307.49805 146.86328 z M 110.26367 260.73633 A 109 109 0 0 0 124.92578 279.07422 L 129.91992 274.08008 A 102 102 0 0 0 175.63281 300.4082 L 173.78906 307.28516 A 109 109 0 0 0 197 310.8457 L 197 320.88867 C 156.78978 319.2305 121.76696 297.67815 101.50195 265.79492 L 110.26367 260.73633 z M 293.76367 260.75195 L 302.49805 265.79492 C 282.23304 297.67815 247.21022 319.2305 207 320.88867 L 207 310.81055 A 109 109 0 0 0 230.21094 307.28516 L 228.38867 300.48438 A 102 102 0 0 0 274.08008 274.08008 L 279.07422 279.07422 A 109 109 0 0 0 293.76367 260.75195 z "
       transform="translate(198,98)"
       id="path860" />
  </g>
  <g
     inkscape:groupmode="layer"
     id="layer7"
     inkscape:label="simbolo-externo 1"
     style="display:inline"
     transform="translate(-198,-98)">
    <path
       inkscape:connector-curvature="0"
       style="display:inline;opacity:1;fill:#ffd510;fill-opacity:1;stroke:none;stroke-width:1px;stroke-linecap:butt;stroke-linejoin:miter;stroke-opacity:1"
       d="m 390,220 5.04492,40.35742 a 40,40 0 0 0 -26.89844,15.5293 l -32.42773,-24.54688 -10,17.32032 37.42969,15.79101 A 40,40 0 0 0 360,300 a 40,40 0 0 0 3.18359,15.5332 l -37.46484,15.80664 10,17.32032 32.41602,-24.53907 a 40,40 0 0 0 26.9082,15.53321 L 390,380 h 20 l -5.04492,-40.35742 a 40,40 0 0 0 26.89844,-15.5293 l 32.42773,24.54688 10,-17.32032 -37.42969,-15.79101 A 40,40 0 0 0 440,300 40,40 0 0 0 436.81641,284.4668 l 37.46484,-15.80664 -10,-17.32032 -32.41602,24.53907 A 40,40 0 0 0 404.95703,260.3457 L 410,220 Z"
       id="path1082" />
  </g>
</svg>
